<?xml version="1.0" encoding="UTF-8"?>
<svg width="176px" height="176px" viewBox="0 0 176 176" version="1.1" xmlns="http://www.w3.org/2000/svg" xmlns:xlink="http://www.w3.org/1999/xlink">
    <title>날씨아이콘_가끔눈_밤</title>
    <defs>
        <linearGradient x1="90.5165819%" y1="90.4894682%" x2="45.0206187%" y2="45.0041292%" id="linearGradient-1">
            <stop stop-color="#7FAAFF" offset="0%"></stop>
            <stop stop-color="#7ABEF5" offset="100%"></stop>
        </linearGradient>
        <path d="M11.71,67 C28.4338377,67.0073417 44.2623254,59.4446537 54.7640216,46.429233 C65.2657178,33.4138122 69.3119831,16.3444534 65.77,2.13162821e-14 C92.6767572,5.82097608 111.209114,30.5406009 109.252891,58.0002173 C107.296667,85.4598338 85.4472001,107.302657 57.9869899,109.250529 C30.5267798,111.198401 5.81279249,92.6585263 2.13162821e-14,65.75 C3.84821926,66.5791434 7.7734702,66.9981497 11.71,67 Z" id="path-2"></path>
        <path d="M131.69,54.76 L120.92,57.66 L119.5,56.84 L115.39,52.6 L120.18,47.8 L120.92,47.37 L131.69,50.26 C132.798604,50.6690987 134.043195,50.4167875 134.904951,49.6082448 C135.766708,48.7997022 136.09773,47.573696 135.760027,46.4412993 C135.422324,45.3089026 134.473855,44.4644654 133.31,44.26 L128.56,42.99 L133.02,40.41 C134.025061,39.8731318 134.657514,38.8310524 134.669802,37.6916562 C134.68209,36.55226 134.072259,35.4967829 133.07901,34.9383633 C132.085762,34.3799438 130.867086,34.4074058 129.9,35.01 L125.44,37.58 L126.71,32.83 C127.123581,31.7194363 126.872283,30.4704384 126.061379,29.6062415 C125.250475,28.7420446 124.019977,28.4118609 122.88537,28.7540124 C121.750762,29.0961639 120.907947,30.0515746 120.71,31.22 L117.8,41.96 L116.38,42.77 L110.54,44.24 L108.92,38.45 L108.92,36.81 L116.81,28.92 C117.960982,27.6913848 117.929667,25.7711958 116.739236,24.5807643 C115.548804,23.3903329 113.628615,23.3590184 112.4,24.51 L108.92,27.98 L108.92,22.83 C108.92,21.1068716 107.523128,19.71 105.8,19.71 C104.076872,19.71 102.68,21.1068716 102.68,22.83 L102.68,27.98 L99.21,24.51 C98.4222294,23.720443 97.2730757,23.411133 96.195414,23.6985839 C95.1177523,23.9860348 94.2753051,24.826576 93.985414,25.9035839 C93.6955229,26.9805917 94.0022294,28.130443 94.79,28.92 L102.68,36.81 L102.68,37.66 L100.92,44.21 L95.19,42.77 L93.77,41.96 L90.89,31.18 C90.6920526,30.0115746 89.8492375,29.0561639 88.7146303,28.7140124 C87.5800231,28.3718609 86.3495249,28.7020446 85.5386212,29.5662415 C84.7277174,30.4304384 84.4764187,31.6794363 84.89,32.79 L86.16,37.54 L81.7,34.97 C80.7329143,34.3674058 79.5142379,34.3399438 78.5209895,34.8983633 C77.5277412,35.4567829 76.9179099,36.51226 76.9301981,37.6516562 C76.9424862,38.7910524 77.5749392,39.8331318 78.58,40.37 L83.04,42.95 L78.22,44.22 C76.7119065,44.7816241 75.8783875,46.3981363 76.2954557,47.9524277 C76.7125239,49.5067191 78.2433329,50.4888033 79.83,50.22 L90.61,47.33 L91.35,47.76 L96.14,52.56 L92.03,56.8 L90.61,57.62 L79.83,54.76 C78.7194363,54.3464187 77.4704384,54.5977174 76.6062415,55.4086212 C75.7420446,56.2195249 75.4118609,57.4500231 75.7540124,58.5846303 C76.0961639,59.7192375 77.0515746,60.5620526 78.22,60.76 L82.97,62.03 L78.51,64.66 C77.0160698,65.5215642 76.5034358,67.4310698 77.365,68.925 C78.2265642,70.4189302 80.1360698,70.9315642 81.63,70.07 L86.09,67.49 L84.82,72.24 C84.6032036,73.0383685 84.7134312,73.890214 85.1263002,74.6071046 C85.5391691,75.3239952 86.2206514,75.846846 87.02,76.06 C87.821019,76.2767007 88.675365,76.1653765 89.3941063,75.7506458 C90.1128477,75.3359152 90.6367656,74.6519487 90.85,73.85 L93.73,63.08 L94.47,62.65 L100.92,60.92 L102.65,67.35 L102.65,68.2 L94.76,76.09 C93.5422121,77.3105493 93.5444507,79.2872121 94.765,80.505 C95.9855493,81.7227879 97.9622121,81.7205493 99.18,80.5 L102.65,77.03 L102.65,82.18 C102.65,83.9031284 104.046872,85.3 105.77,85.3 C107.493128,85.3 108.89,83.9031284 108.89,82.18 L108.89,77.03 L112.37,80.5 C113.598615,81.6509816 115.518804,81.6196671 116.709236,80.4292357 C117.899667,79.2388042 117.930982,77.3186152 116.78,76.09 L108.92,68.2 L108.92,66.57 L110.54,60.88 L117.05,62.66 L117.8,63.09 L120.68,73.86 C121.003101,75.0824531 122.032069,75.9890252 123.285485,76.155563 C124.5389,76.3221007 125.768896,75.7156706 126.4,74.62 C126.817062,73.9035669 126.928762,73.0495999 126.71,72.25 L125.44,67.5 L129.92,70.05 C131.388523,70.7372731 133.138724,70.1851786 133.947087,68.7796699 C134.75545,67.3741612 134.352532,65.5837234 133.02,64.66 L128.56,62.08 L133.31,60.81 C134.473855,60.6055346 135.422324,59.7610974 135.760027,58.6287007 C136.09773,57.496304 135.766708,56.2702978 134.904951,55.4617552 C134.043195,54.6532125 132.798604,54.4009013 131.69,54.81 L131.69,54.76 Z M103.1,55.17 L103.1,55.17 C101.62878,53.6979049 101.62878,51.3120951 103.1,49.84 L103.1,49.84 C104.572095,48.3687799 106.957905,48.3687799 108.43,49.84 L108.43,49.84 C109.90122,51.3120951 109.90122,53.6979049 108.43,55.17 L108.43,55.17 C106.957905,56.6412201 104.572095,56.6412201 103.1,55.17 L103.1,55.17 Z" id="path-4"></path>
        <filter x="-24.9%" y="-22.9%" width="149.8%" height="145.7%" filterUnits="objectBoundingBox" id="filter-5">
            <feOffset dx="0" dy="0" in="SourceAlpha" result="shadowOffsetOuter1"></feOffset>
            <feGaussianBlur stdDeviation="5" in="shadowOffsetOuter1" result="shadowBlurOuter1"></feGaussianBlur>
            <feComposite in="shadowBlurOuter1" in2="SourceAlpha" operator="out" result="shadowBlurOuter1"></feComposite>
            <feColorMatrix values="0 0 0 0 0   0 0 0 0 0   0 0 0 0 0  0 0 0 0.2 0" type="matrix" in="shadowBlurOuter1"></feColorMatrix>
        </filter>
        <linearGradient x1="12.6436776%" y1="9.50815441%" x2="73.1878596%" y2="76.2954358%" id="linearGradient-6">
            <stop stop-color="#C7DFFF" offset="0%"></stop>
            <stop stop-color="#C7DFFF" offset="0%"></stop>
            <stop stop-color="#A6CDFF" offset="100%"></stop>
        </linearGradient>
        <linearGradient x1="11.3157858%" y1="127.086384%" x2="71.3897802%" y2="193.775174%" id="linearGradient-7">
            <stop stop-color="#C7DFFF" offset="0%"></stop>
            <stop stop-color="#C7DFFF" offset="0%"></stop>
            <stop stop-color="#A6CDFF" offset="100%"></stop>
        </linearGradient>
        <linearGradient x1="7.78317911%" y1="17.2127516%" x2="92.2168209%" y2="100%" id="linearGradient-8">
            <stop stop-color="#D9EAFF" offset="0%"></stop>
            <stop stop-color="#C5DDFF" offset="100%"></stop>
        </linearGradient>
    </defs>
    <style type="text/css">
      <![CDATA[
      #moon-wrap {
      -webkit-animation: moon-wrap-anim 1.5s cubic-bezier(0.445, 0.05, 0.55, 0.95) alternate infinite;
      animation: moon-wrap-anim 1.5s cubic-bezier(0.445, 0.05, 0.55, 0.95) alternate infinite;
      }
      @-webkit-keyframes moon-wrap-anim {
      0% { -webkit-transform: translate(0, 0px); }
      100% { -webkit-transform: translate(0, 3px); }
      }
      @keyframes moon-wrap-anim {
      0% { transform: translate(0, 0px); }
      100% { transform: translate(0, 3px); }
      }
      #moon {
      }
      #snow-header-0 {
      -webkit-transform-origin: 60% 30%; -webkit-animation: snow-header-anim-0 20s linear infinite;
      transform-origin: 60% 30%; animation: snow-header-anim-0 20s linear infinite;
      }
      @-webkit-keyframes snow-header-anim-0 {
      0% { -webkit-transform: rotate(0deg); }
      100% { -webkit-transform: rotate(360deg); }
      }
      @keyframes snow-header-anim-0 {
      0% { transform: rotate(0deg); }
      100% { transform: rotate(360deg); }
      }
      #snow-contain-1 {
      -webkit-animation: snow-contain-anim-1 3s linear infinite;
      animation: snow-contain-anim-1 3s linear infinite;
      }
      @-webkit-keyframes snow-contain-anim-1 {
      0% { opacity: 1; -webkit-transform: translate(0px, 0px); }
      30% { opacity: 1; }
      50% { opacity: 0; -webkit-transform: translate(-10px, 10px); }
      50.01% { opacity: 0; -webkit-transform: translate(5px, -10px); }
      70% { opacity: 1; }
      100% { opacity: 1; -webkit-transform: translate(0px, 0px); }
      }
      @keyframes snow-contain-anim-1 {
      0% { opacity: 1; transform: translate(0px, 0px); }
      30% { opacity: 1; }
      50% { opacity: 0; transform: translate(-10px, 10px); }
      50.01% { opacity: 0; transform: translate(5px, -10px); }
      70% { opacity: 1; }
      100% { opacity: 1; transform: translate(0px, 0px); }
      }
      #snow-header-1 {
      -webkit-transform-origin: 64% 69%; -webkit-animation: snow-header-anim-1 3s linear infinite;
      transform-origin: 64% 69%; animation: snow-header-anim-1 3s linear infinite;
      }
      @-webkit-keyframes snow-header-anim-1 {
      0% { -webkit-transform: rotate(0deg); }
      50% { -webkit-transform: rotate(45deg); }
      50.01% { -webkit-transform: rotate(-45deg); }
      100% { -webkit-transform: rotate(0deg); }
      }
      @keyframes snow-header-anim-1 {
      0% { transform: rotate(0deg); }
      50% { transform: rotate(45deg); }
      50.01% { transform: rotate(-45deg); }
      100% { transform: rotate(0deg); }
      }
      #snow-contain-2 {
      -webkit-animation: snow-contain-anim-2 3s linear infinite;
      animation: snow-contain-anim-2 3s linear infinite;
      }
      @-webkit-keyframes snow-contain-anim-2 {
      0% { opacity: 1; -webkit-transform: translate(0px, 0px); }
      10% { opacity: 1; }
      30% { opacity: 0; -webkit-transform: translate(2px, 4px); }
      30.01% { opacity: 0; -webkit-transform: translate(-5px, -10px); }
      50% { opacity: 1; }
      100% { opacity: 1; -webkit-transform: translate(0px, 0px); }
      }
      @keyframes snow-contain-anim-2 {
      0% { opacity: 1; transform: translate(0px, 0px); }
      10% { opacity: 1; }
      30% { opacity: 0; transform: translate(2px, 4px); }
      30.01% { opacity: 0; transform: translate(-5px, -10px); }
      50% { opacity: 1; }
      100% { opacity: 1; transform: translate(0px, 0px); }
      }
      #snow-header-2 {
      -webkit-transform-origin: 76% 57%; -webkit-animation: snow-header-anim-2 3s linear infinite;
      transform-origin: 76% 57%; animation: snow-header-anim-2 3s linear infinite;
      }
      @-webkit-keyframes snow-header-anim-2 {
      0% { -webkit-transform: rotate(0deg); }
      30% { -webkit-transform: rotate(25deg); }
      30.01% { -webkit-transform: rotate(-45deg); }
      100% { -webkit-transform: rotate(0deg); }
      }
      @keyframes snow-header-anim-2 {
      0% { transform: rotate(0deg); }
      30% { transform: rotate(25deg); }
      30.01% { transform: rotate(-45deg); }
      100% { transform: rotate(0deg); }
      }

      #snow-contain-0-inner-transY {
      -webkit-animation: snow-contain-0-inner-transY-anim 1.5s cubic-bezier(0.445, 0.05, 0.55, 0.95) alternate infinite;
      animation: snow-contain-0-inner-transY-anim 1.5s cubic-bezier(0.445, 0.05, 0.55, 0.95) alternate infinite;
      }
      @-webkit-keyframes snow-contain-0-inner-transY-anim {
      0% { -webkit-transform: translate(0, 0px); }
      100% { -webkit-transform: translate(0, -3px); }
      }
      @keyframes snow-contain-0-inner-transY-anim {
      0% { transform: translate(0, 0px); }
      100% { transform: translate(0, -3px); }
      }
      #snow-header-0-inner {
      -webkit-transform-origin: 60% 30%; -webkit-animation: snow-header-0-inner-anim 20s linear infinite;
      transform-origin: 60% 30%; animation: snow-header-0-inner-anim 20s linear infinite;
      }
      @-webkit-keyframes snow-header-0-inner-anim {
      0% { -webkit-transform: rotate(0deg); }
      100% { -webkit-transform: rotate(360deg); }
      }
      @keyframes snow-header-0-inner-anim {
      0% { transform: rotate(0deg); }
      100% { transform: rotate(360deg); }
      }
      ]]>
    </style>
    <g id="날씨아이콘_가끔눈_밤" stroke="none" stroke-width="1" fill="none" fill-rule="evenodd">
        <g id="18_가끔눈_밤">
            <g id="아이콘" transform="translate(16.000000, 21.000000)">
                <g id="Shape" transform="translate(0.080000, 0.340000)">
                    <g id="moon-wrap">
                        <g id="moon">
                            <mask id="mask-3" fill="white">
                                <use xlink:href="#path-2"></use>
                            </mask>
                            <use id="Mask" fill="url(#linearGradient-1)" fill-rule="nonzero" xlink:href="#path-2"></use>
                            <g fill-rule="nonzero" mask="url(#mask-3)">
                                <g id="snow-contain-0-inner-transY">
                                    <g id="snow-header-0-inner">
                                        <use fill="black" fill-opacity="1" filter="url(#filter-5)" xlink:href="#path-4"></use>
                                        <use fill-opacity="0" fill="#FFFFFF" xlink:href="#path-4"></use>
                                    </g>
                                </g>
                            </g>
                        </g>
                    </g>
                </g>
                <g id="snow-contain-2">
                  <path d="M130.26,91.58 L130.26,93.88 L128.26,92.73 C127.440545,92.2549861 126.46591,92.1250908 125.550652,92.3689095 C124.635394,92.6127282 123.854544,93.2102731 123.38,94.03 L123.38,94.03 C122.391601,95.7421078 122.97807,97.9312934 124.69,98.92 L126.69,100.07 L124.69,101.22 C122.980679,102.205828 122.394172,104.390679 123.38,106.1 C124.365828,107.809321 126.550679,108.395828 128.26,107.41 L130.26,106.26 L130.26,108.56 C130.259996,109.508558 130.637493,110.41812 131.309162,111.087913 C131.980831,111.757706 132.891446,112.132657 133.84,112.130014 L133.84,112.130014 C135.811657,112.130014 137.41,110.531657 137.41,108.56 L137.41,106.26 L139.41,107.41 C140.519662,108.129625 141.935681,108.17883 143.092618,107.537967 C144.249555,106.897104 144.958914,105.670589 144.937435,104.348186 C144.915956,103.025784 144.16714,101.822952 142.99,101.22 L140.99,100.07 L142.99,98.92 C144.16714,98.3170479 144.915956,97.1142162 144.937435,95.7918138 C144.958914,94.4694114 144.249555,93.2428956 143.092618,92.6020329 C141.935681,91.9611701 140.519662,92.0103753 139.41,92.73 L137.41,93.88 L137.41,91.58 C137.479961,90.2576603 136.814284,89.0047005 135.679346,88.3225043 C134.544407,87.6403082 133.125593,87.6403082 131.990654,88.3225043 C130.855716,89.0047005 130.190039,90.2576603 130.26,91.58 L130.26,91.58 Z" id="snow-header-2" fill="url(#linearGradient-6)" fill-rule="nonzero"></path>
                </g>
                <g id="snow-contain-1">
                  <path d="M115.08,118.26 L113.93,118.93 L113.93,117.6 C113.93,116.462293 113.007707,115.54 111.87,115.54 L111.87,115.54 C111.324569,115.54 110.801622,115.757347 110.416884,116.143962 C110.032146,116.530577 109.817339,117.054576 109.82,117.6 L109.82,118.93 L108.67,118.26 C107.684172,117.691147 106.423853,118.029172 105.855,119.015 C105.286147,120.000828 105.624172,121.261147 106.61,121.83 L107.76,122.49 L106.61,123.15 C105.628577,123.720111 105.293199,124.976662 105.86,125.96 L105.86,125.96 C106.120105,126.445736 106.56908,126.802649 107.100963,126.946503 C107.632847,127.090358 108.200517,127.00841 108.67,126.72 L109.82,126.05 L109.82,127.38 C109.766366,128.148398 110.145895,128.882523 110.803841,129.283047 C111.461786,129.683571 112.288214,129.683571 112.946159,129.283047 C113.604105,128.882523 113.983634,128.148398 113.93,127.38 L113.93,126.05 L115.08,126.72 C115.717719,127.087984 116.503313,127.087795 117.140855,126.719506 C117.778398,126.351217 118.171032,125.670779 118.170855,124.934506 C118.170679,124.198233 117.777719,123.517984 117.14,123.15 L115.99,122.49 L117.14,121.83 C118.125828,121.261147 118.463853,120.000828 117.895,119.015 C117.326147,118.029172 116.065828,117.691147 115.08,118.26 L115.08,118.26 Z" id="snow-header-1" fill="url(#linearGradient-7)" fill-rule="nonzero" opacity="0.8"></path>
                </g>
                <path d="M131.77,55.1 L121,58 L119.58,57.18 L115.47,52.94 L120.26,48.14 L121,47.71 L131.77,50.6 C132.878604,51.0090987 134.123195,50.7567875 134.984951,49.9482448 C135.846708,49.1397022 136.17773,47.913696 135.840027,46.7812993 C135.502324,45.6489026 134.553855,44.8044654 133.39,44.6 L128.64,43.33 L133.1,40.75 C134.105061,40.2131318 134.737514,39.1710524 134.749802,38.0316562 C134.76209,36.89226 134.152259,35.8367829 133.15901,35.2783633 C132.165762,34.7199438 130.947086,34.7474058 129.98,35.35 L125.52,37.92 L126.79,33.17 C127.203581,32.0594363 126.952283,30.8104384 126.141379,29.9462415 C125.330475,29.0820446 124.099977,28.7518609 122.96537,29.0940124 C121.830762,29.4361639 120.987947,30.3915746 120.79,31.56 L117.88,42.3 L116.46,43.11 L110.62,44.58 L109,38.79 L109,37.15 L116.89,29.26 C118.040982,28.0313848 118.009667,26.1111958 116.819236,24.9207643 C115.628804,23.7303329 113.708615,23.6990184 112.48,24.85 L109,28.32 L109,23.17 C109,21.4468716 107.603128,20.05 105.88,20.05 C104.156872,20.05 102.76,21.4468716 102.76,23.17 L102.76,28.32 L99.29,24.85 C98.5022294,24.060443 97.3530757,23.751133 96.275414,24.0385839 C95.1977523,24.3260348 94.3553051,25.166576 94.065414,26.2435839 C93.7755229,27.3205917 94.0822294,28.470443 94.87,29.26 L102.76,37.15 L102.76,38 L101,44.55 L95.27,43.11 L93.85,42.3 L90.97,31.52 C90.7720526,30.3515746 89.9292375,29.3961639 88.7946303,29.0540124 C87.6600231,28.7118609 86.4295249,29.0420446 85.6186212,29.9062415 C84.8077174,30.7704384 84.5564187,32.0194363 84.97,33.13 L86.24,37.88 L81.78,35.31 C80.8129143,34.7074058 79.5942379,34.6799438 78.6009895,35.2383633 C77.6077412,35.7967829 76.9979099,36.85226 77.0101981,37.9916562 C77.0224862,39.1310524 77.6549392,40.1731318 78.66,40.71 L83.12,43.29 L78.3,44.56 C76.7919065,45.1216241 75.9583875,46.7381363 76.3754557,48.2924277 C76.7925239,49.8467191 78.3233329,50.8288033 79.91,50.56 L90.69,47.67 L91.43,48.1 L96.22,52.9 L92.11,57.14 L90.69,57.96 L79.91,55.1 C78.7994363,54.6864187 77.5504384,54.9377174 76.6862415,55.7486212 C75.8220446,56.5595249 75.4918609,57.7900231 75.8340124,58.9246303 C76.1761639,60.0592375 77.1315746,60.9020526 78.3,61.1 L83.05,62.37 L78.59,65 C77.0960698,65.8615642 76.5834358,67.7710698 77.445,69.265 C78.3065642,70.7589302 80.2160698,71.2715642 81.71,70.41 L86.17,67.83 L84.9,72.58 C84.6832036,73.3783685 84.7934312,74.230214 85.2063002,74.9471046 C85.6191691,75.6639952 86.3006514,76.186846 87.1,76.4 C87.901019,76.6167007 88.755365,76.5053765 89.4741063,76.0906458 C90.1928477,75.6759152 90.7167656,74.9919487 90.93,74.19 L93.81,63.42 L94.55,62.99 L101,61.26 L102.73,67.69 L102.73,68.54 L94.84,76.43 C93.6222121,77.6505493 93.6244507,79.6272121 94.845,80.845 C96.0655493,82.0627879 98.0422121,82.0605493 99.26,80.84 L102.73,77.37 L102.73,82.52 C102.73,84.2431284 104.126872,85.64 105.85,85.64 C107.573128,85.64 108.97,84.2431284 108.97,82.52 L108.97,77.37 L112.45,80.84 C113.678615,81.9909816 115.598804,81.9596671 116.789236,80.7692357 C117.979667,79.5788042 118.010982,77.6586152 116.86,76.43 L109,68.54 L109,66.91 L110.62,61.22 L117.13,63 L117.88,63.43 L120.76,74.2 C121.083101,75.4224531 122.112069,76.3290252 123.365485,76.495563 C124.6189,76.6621007 125.848896,76.0556706 126.48,74.96 C126.897062,74.2435669 127.008762,73.3895999 126.79,72.59 L125.52,67.84 L130,70.39 C131.468523,71.0772731 133.218724,70.5251786 134.027087,69.1196699 C134.83545,67.7141612 134.432532,65.9237234 133.1,65 L128.64,62.42 L133.39,61.15 C134.553855,60.9455346 135.502324,60.1010974 135.840027,58.9687007 C136.17773,57.836304 135.846708,56.6102978 134.984951,55.8017552 C134.123195,54.9932125 132.878604,54.7409013 131.77,55.15 L131.77,55.1 Z M103.18,55.51 L103.18,55.51 C101.70878,54.0379049 101.70878,51.6520951 103.18,50.18 L103.18,50.18 C104.652095,48.7087799 107.037905,48.7087799 108.51,50.18 L108.51,50.18 C109.98122,51.6520951 109.98122,54.0379049 108.51,55.51 L108.51,55.51 C107.037905,56.9812201 104.652095,56.9812201 103.18,55.51 L103.18,55.51 Z" id="snow-header-0" fill="url(#linearGradient-8)" fill-rule="nonzero"></path>
            </g>
        </g>
    </g>
</svg>
