<?xml version="1.0" encoding="UTF-8"?>
<svg width="176px" height="176px" viewBox="0 0 176 176" version="1.1" xmlns="http://www.w3.org/2000/svg" xmlns:xlink="http://www.w3.org/1999/xlink">
    <title>날씨아이콘_눈</title>
    <defs>
        <linearGradient x1="16.8031968%" y1="37.376585%" x2="86.973027%" y2="64.0759778%" id="linearGradient-1">
            <stop stop-color="#B8D6FF" offset="0%"></stop>
            <stop stop-color="#A6CDFF" offset="98%"></stop>
            <stop stop-color="#A6CDFF" offset="100%"></stop>
        </linearGradient>
        <linearGradient x1="-4876.35775%" y1="-5170.16493%" x2="-4909.96302%" y2="-5125.71787%" id="linearGradient-2">
            <stop stop-color="#B8D6FF" offset="0%"></stop>
            <stop stop-color="#A6CDFF" offset="98%"></stop>
            <stop stop-color="#A6CDFF" offset="100%"></stop>
        </linearGradient>
        <linearGradient x1="-4843.01897%" y1="-5211.91762%" x2="-4944.37181%" y2="-5077.9079%" id="linearGradient-3">
            <stop stop-color="#B8D6FF" offset="0%"></stop>
            <stop stop-color="#A6CDFF" offset="98%"></stop>
            <stop stop-color="#A6CDFF" offset="100%"></stop>
        </linearGradient>
        <linearGradient x1="8.78760152%" y1="13.3113473%" x2="75.4963355%" y2="73.2693817%" id="linearGradient-4">
            <stop stop-color="#C7DFFF" offset="0%"></stop>
            <stop stop-color="#C7DFFF" offset="0%"></stop>
            <stop stop-color="#A6CDFF" offset="100%"></stop>
        </linearGradient>
        <linearGradient x1="-9244.53375%" y1="-2574.43329%" x2="-9219.85233%" y2="-2490.39054%" id="linearGradient-5">
            <stop stop-color="#C7DFFF" offset="0%"></stop>
            <stop stop-color="#C7DFFF" offset="0%"></stop>
            <stop stop-color="#A6CDFF" offset="100%"></stop>
        </linearGradient>
        <linearGradient x1="18.7888604%" y1="15.5290855%" x2="81.2056265%" y2="84.0445831%" id="linearGradient-6">
            <stop stop-color="#C7DFFF" offset="0%"></stop>
            <stop stop-color="#C7DFFF" offset="0%"></stop>
            <stop stop-color="#A6CDFF" offset="100%"></stop>
        </linearGradient>
    </defs>
    <style type="text/css">
      <![CDATA[
      #snow-header-0 {
      -webkit-transform-origin: 20.5% 22.5%; -webkit-animation: snow-header-anim-0 20s linear infinite;
      transform-origin: 20.5% 22.5%; animation: snow-header-anim-0 20s linear infinite;
      }
      @-webkit-keyframes snow-header-anim-0 {
      0% { -webkit-transform: rotate(0deg); }
      100% { -webkit-transform: rotate(360deg); }
      }
      @keyframes snow-header-anim-0 {
      0% { transform: rotate(0deg); }
      100% { transform: rotate(360deg); }
      }
      #snow-contain-1 {
      -webkit-animation: snow-contain-anim-1 3s linear infinite;
      animation: snow-contain-anim-1 3s linear infinite;
      }
      @-webkit-keyframes snow-contain-anim-1 {
      0% { opacity: 1; -webkit-transform: translate(0px, 0px); }
      30% { opacity: 1; }
      50% { opacity: 0; -webkit-transform: translate(10px, 20px); }
      50.01% { opacity: 0; -webkit-transform: translate(-5px, -10px); }
      70% { opacity: 1; }
      100% { opacity: 1; -webkit-transform: translate(0px, 0px); }
      }
      @keyframes snow-contain-anim-1 {
      0% { opacity: 1; transform: translate(0px, 0px); }
      30% { opacity: 1; }
      50% { opacity: 0; transform: translate(10px, 20px); }
      50.01% { opacity: 0; transform: translate(-5px, -10px); }
      70% { opacity: 1; }
      100% { opacity: 1; transform: translate(0px, 0px); }
      }
      #snow-header-1 {
      -webkit-transform-origin: 13% 11%; -webkit-animation: snow-header-anim-1 3s linear infinite;
      transform-origin: 13% 11%; animation: snow-header-anim-1 3s linear infinite;
      }
      @-webkit-keyframes snow-header-anim-1 {
      0% { -webkit-transform: rotate(0deg); }
      50% { -webkit-transform: rotate(45deg); }
      50.01% { -webkit-transform: rotate(-45deg); }
      100% { -webkit-transform: rotate(0deg); }
      }
      @keyframes snow-header-anim-1 {
      0% { transform: rotate(0deg); }
      50% { transform: rotate(45deg); }
      50.01% { transform: rotate(-45deg); }
      100% { transform: rotate(0deg); }
      }
      #snow-contain-2 {
      -webkit-animation: snow-contain-anim-2 3s linear infinite;
      animation: snow-contain-anim-2 3s linear infinite;
      }
      @-webkit-keyframes snow-contain-anim-2 {
      0% { opacity: 1; -webkit-transform: translate(0px, 0px); }
      10% { opacity: 1; }
      30% { opacity: 0; -webkit-transform: translate(-2px, 4px); }
      30.01% { opacity: 0; -webkit-transform: translate(5px, -10px); }
      50% { opacity: 1; }
      100% { opacity: 1; -webkit-transform: translate(0px, 0px); }
      }
      @keyframes snow-contain-anim-2 {
      0% { opacity: 1; transform: translate(0px, 0px); }
      10% { opacity: 1; }
      30% { opacity: 0; transform: translate(-2px, 4px); }
      30.01% { opacity: 0; transform: translate(5px, -10px); }
      50% { opacity: 1; }
      100% { opacity: 1; transform: translate(0px, 0px); }
      }
      #snow-header-2 {
      -webkit-transform-origin: 26% 60%; -webkit-animation: snow-header-anim-2 3s linear infinite;
      transform-origin: 26% 60%; animation: snow-header-anim-2 3s linear infinite;
      }
      @-webkit-keyframes snow-header-anim-2 {
      0% { -webkit-transform: rotate(0deg); }
      100% { -webkit-transform: rotate(-180deg); }
      }
      @keyframes snow-header-anim-2 {
      0% { transform: rotate(0deg); }
      100% { transform: rotate(-180deg); }
      }
      #snow-contain-3 {
      -webkit-animation: snow-contain-anim-3 3s linear infinite;
      animation: snow-contain-anim-3 3s linear infinite;
      }
      @-webkit-keyframes snow-contain-anim-3 {
      0% { opacity: 1; -webkit-transform: translate(0px, 0px); }
      50% { opacity: 1; }
      70% { opacity: 0; -webkit-transform: translate(-5px, 10px); }
      70.01% { opacity: 0; -webkit-transform: translate(3px, -4px); }
      80% { opacity: 1; }
      100% { opacity: 1; -webkit-transform: translate(0px, 0px); }
      }
      @keyframes snow-contain-anim-3 {
      0% { opacity: 1; transform: translate(0px, 0px); }
      50% { opacity: 1; }
      70% { opacity: 0; transform: translate(-5px, 10px); }
      70.01% { opacity: 0; transform: translate(3px, -4px); }
      80% { opacity: 1; }
      100% { opacity: 1; transform: translate(0px, 0px); }
      }
      #snow-header-3 {
      -webkit-transform-origin: 56% 26%; -webkit-animation: snow-header-anim-3 3s linear infinite;
      transform-origin: 56% 26%; animation: snow-header-anim-3 3s linear infinite;
      }
      @-webkit-keyframes snow-header-anim-3 {
      0% { -webkit-transform: rotate(0deg); }
      70% { -webkit-transform: rotate(-90deg); }
      70.01% { -webkit-transform: rotate(25deg); }
      100% { -webkit-transform: rotate(0deg); }
      }
      @keyframes snow-header-anim-3 {
      0% { transform: rotate(0deg); }
      70% { transform: rotate(-90deg); }
      70.01% { transform: rotate(25deg); }
      100% { transform: rotate(0deg); }
      }
      ]]>
    </style>
    <g id="날씨아이콘_눈" stroke="none" stroke-width="1" fill="none" fill-rule="evenodd">
        <g id="아이콘" transform="translate(24.000000, 26.000000)" fill-rule="nonzero">
            <g opacity="0.9" transform="translate(69.000000, 72.000000)">
              <g id="snow-contain-1">
                  <g id="snow-header-1">
                    <path d="M31.771029,17.9014139 L11.2031968,17.9014139 L6.04835165,12.6316468 C5.24394853,11.8472703 3.97392522,11.86357 3.18903772,12.6683438 C2.40415021,13.4731176 2.39198022,14.7714975 3.16163836,15.5914993 L5.43836164,17.9189797 L2.04475524,17.9189797 C0.915468106,17.9189797 0,18.8548573 0,20.0093207 C0,21.1637841 0.915468106,22.0996616 2.04475524,22.0996616 L5.42117882,22.0996616 L3.14445554,24.427142 C2.3747974,25.2471438 2.38696739,26.5455237 3.1718549,27.3502975 C3.95674241,28.1550713 5.22676572,28.171371 6.03116883,27.3869945 L11.186014,22.1172275 L31.7538462,22.1172275 L36.9086913,27.3869945 C37.7082076,28.2043352 39.0044797,28.2043352 39.803996,27.3869945 C40.6035123,26.5696538 40.6035123,25.2444827 39.803996,24.427142 L37.5788212,22.0820957 L40.9552448,22.0820957 C42.0845319,22.0820957 43,21.1462182 43,19.9917548 C43,18.8372914 42.0845319,17.9014139 40.9552448,17.9014139 L37.5788212,17.9014139 L39.8641359,15.5739334 C40.2455577,15.1820733 40.458839,14.6512027 40.4569431,14.0983987 C40.4573697,13.5433025 40.2444788,13.0102491 39.8641359,12.614081 C39.4805251,12.2209441 38.9596651,12 38.4164835,12 C37.8733019,12 37.3524419,12.2209441 36.9688312,12.614081 L31.771029,17.9014139 Z" id="Path" fill="url(#linearGradient-1)"></path>
                    <path d="M24.8566882,9.85914568 L14.5631243,28.0773852 L7.512033,30.0108211 C6.42241218,30.3117486 5.77721025,31.460674 6.07093412,32.5770179 C6.364658,33.6933617 7.48608043,34.3543873 8.57570127,34.0534599 L11.6809264,33.1746254 L9.9653324,36.1626627 C9.40157212,37.1649454 9.73761483,38.4456824 10.7159048,39.023269 C11.6941948,39.6008556 12.9442736,39.2565714 13.508034,38.2542889 L15.223628,35.2662515 L16.081425,38.4476325 C16.3727802,39.5639763 17.4922824,40.2269692 18.5819032,39.9284685 C19.671524,39.6299679 20.3186462,38.4830099 20.0272912,37.366666 L18.1401378,30.1426463 L28.4337017,11.9244068 L35.484793,9.98218251 C36.5744138,9.68368183 37.221536,8.53672376 36.9301809,7.42037992 C36.6388257,6.30403608 35.5193235,5.64104315 34.4297027,5.93954374 L31.3158996,6.81837826 L33.0314936,3.83034091 C33.5562513,2.83448676 33.2127142,1.59163803 32.256218,1.02554787 C31.2997217,0.4594577 30.0772319,0.775473375 29.49737,1.73871476 L27.781776,4.72675211 L26.923979,1.54537117 C26.6269843,0.435901272 25.5141028,-0.22234409 24.4277897,0.0689291804 C23.3371574,0.369244346 22.6889695,1.51665709 22.9781128,2.63512596 L24.8566882,9.85914568 Z" id="Path" fill="url(#linearGradient-2)"></path>
                    <path d="M24.8257451,30.2050817 L14.5350287,11.9885475 L7.51161472,10.046505 C6.42229533,9.74560568 5.77727188,8.59678782 6.0709145,7.48054847 C6.36455712,6.36430913 7.48566934,5.70334541 8.57498875,6.00424467 L11.6793549,6.88299692 L9.96423547,3.89523927 C9.38405454,2.89062384 9.70848602,1.59426948 10.6888735,0.999750708 C11.6692609,0.405231935 12.9343516,0.737680895 13.5145326,1.74229626 L15.229652,4.73005391 L16.0872117,1.54897076 C16.3808544,0.432731389 17.5019666,-0.228232327 18.5912861,0.0726669822 C19.6806055,0.373566292 20.325629,1.52238418 20.0319863,2.63862355 L18.145355,9.86196705 L28.4360714,28.0785012 L35.4852121,30.0117562 C36.5745315,30.3102289 37.2214747,31.4570796 36.9302002,32.5733189 C36.6389256,33.6895583 35.5197331,34.3524892 34.4304137,34.0540165 L31.317472,33.1752643 L33.0325914,36.1630219 C33.4227283,36.8112189 33.4381826,37.6254892 33.072936,38.2887402 C32.7076895,38.9519912 32.0194825,39.3593723 31.276316,39.3522416 C30.5331495,39.3451108 29.8525076,38.9245955 29.4994454,38.2544523 L27.784326,35.2666946 L26.9267663,38.4477778 C26.6354918,39.5640171 25.5162992,40.2269479 24.4269798,39.9284752 C23.3376604,39.6300025 22.6907172,38.4831519 22.9819917,37.3669125 L24.8257451,30.2050817 Z" id="Path" fill="url(#linearGradient-3)"></path>
                  </g>
                </g>
            </g>
            <g id="snow-contain-3">
              <path id="snow-header-3" d="M106.13,40.35 L104,40.35 L105.06,38.51 C105.966345,36.9384643 105.429518,34.929835 103.86,34.02 L103.86,34.02 C102.285455,33.1127598 100.273739,33.6492175 99.36,35.22 L98.3,37.06 L97.24,35.22 C96.3314915,33.6459886 94.3190116,33.1064918 92.7450001,34.0150001 C91.1709886,34.9235085 90.6314917,36.9359885 91.54,38.51 L92.6,40.35 L90.47,40.35 C88.6552625,40.3554909 87.1854909,41.8252625 87.18,43.64 L87.18,43.64 C87.18,45.4586416 88.6513668,46.934489 90.47,46.94 L92.6,46.94 L91.54,48.77 C90.6287302,50.3440115 91.1659885,52.3587302 92.74,53.27 C94.3140115,54.1812698 96.3287302,53.6440115 97.24,52.07 L98.3,50.23 L99.36,52.07 C100.27127,53.6440115 102.285988,54.1812698 103.86,53.27 C105.434012,52.3587302 105.97127,50.3440115 105.06,48.77 L104,46.94 L106.12,46.94 C107.340505,47.007263 108.498213,46.3943645 109.128714,45.3471663 C109.759216,44.299968 109.759216,42.990032 109.128714,41.9428337 C108.498213,40.8956355 107.340505,40.282737 106.12,40.35 L106.13,40.35 Z" fill="url(#linearGradient-4)" opacity="0.8"></path>
            </g>
            <g id="snow-contain-2">
              <path id="snow-header-2" d="M50.87,103.24 L49.45,103.24 L50.16,102.01 C50.7572892,100.95694 50.3961357,99.6193348 49.35,99.01 L49.35,99.01 C48.2976895,98.4068557 46.9557406,98.7691819 46.35,99.82 L45.62,101 L44.91,99.77 C44.5116489,99.0876227 43.7795133,98.6695979 42.9893817,98.6733659 C42.1992501,98.677185 41.4711622,99.1022206 41.0793817,99.7883915 C40.6876012,100.474562 40.6916489,101.317623 41.09,102 L41.8,103.23 L40.38,103.23 C39.7938716,103.23 39.2317494,103.462839 38.817294,103.877294 C38.4028386,104.291749 38.17,104.853872 38.17,105.44 L38.17,105.44 C38.17,106.660549 39.1594507,107.65 40.38,107.65 L41.8,107.65 L41.09,108.88 C40.6413604,109.564939 40.6081812,110.441792 41.0037771,111.158676 C41.399373,111.875561 42.1589036,112.314975 42.9775684,112.300582 C43.7962332,112.286189 44.5398482,111.820347 44.91,111.09 L45.62,109.86 L46.34,111.09 C46.7101518,111.820347 47.4537668,112.286189 48.2724316,112.300582 C49.0910964,112.314975 49.850627,111.875561 50.2462229,111.158676 C50.6418188,110.441792 50.6086396,109.564939 50.16,108.88 L49.45,107.65 L50.87,107.65 C51.659557,107.65 52.3891378,107.228776 52.7839163,106.545 C53.1786948,105.861224 53.1786948,105.018776 52.7839163,104.335 C52.3891378,103.651224 51.659557,103.23 50.87,103.23 L50.87,103.24 Z" fill="url(#linearGradient-5)" opacity="0.8"></path>
            </g>
            <g id="">
            <path id="snow-header-0" d="M67.8,42.81 L54.71,46.32 L52.99,45.32 L47.99,40.16 L53.8,34.33 L54.7,33.81 L67.8,37.33 C69.1093784,37.6872656 70.5098929,37.3188476 71.4739831,36.3635254 C72.4380734,35.4082033 72.8192713,34.0111132 72.4739832,32.6985254 C72.128695,31.3859376 71.1093784,30.3572656 69.8,30 L64,28.46 L69.42,25.33 C71.2342554,24.2834204 71.8565796,21.9642554 70.81,20.15 C69.7634204,18.3357446 67.4442554,17.7134204 65.63,18.76 L60.21,21.89 L61.75,16.12 C62.3022847,14.0986378 61.1113622,12.0122847 59.09,11.46 C57.0686378,10.9077153 54.9822847,12.0986378 54.43,14.12 L50.92,27.25 L49.2,28.25 L42.1,30 L40.1,23 L40.1,21 L49.68,11.42 C50.6374718,10.4625282 51.0114071,9.06698269 50.6609481,7.75905192 C50.3104891,6.45112114 49.2888789,5.42951091 47.9809481,5.07905192 C46.6730173,4.72859292 45.2774718,5.10252822 44.32,6.06 L40.1,10.28 L40.1,4 C39.9962593,1.97971705 38.3279447,0.394871753 36.305,0.394871753 C34.2820553,0.394871753 32.6137407,1.97971705 32.51,4 L32.51,10.26 L28.29,6.04 C26.8098769,4.55987691 24.4101232,4.55987693 22.93,6.04000004 C21.4498769,7.52012315 21.4498769,9.91987686 22.93,11.4 L32.51,21 L32.51,22 L30.37,30 L23.37,28.25 L21.65,27.25 L18.18,14.16 C17.8227344,12.8524079 16.7950153,11.8347419 15.4839746,11.490347 C14.1729339,11.145952 12.7777497,11.5271499 11.8239746,12.490347 C10.8701994,13.4535441 10.5027344,14.8524079 10.86,16.16 L12.4,21.93 L7,18.76 C5.1857446,17.7134205 2.86657969,18.3357447 1.82000011,20.1500001 C0.773420533,21.9642554 1.39574467,24.2834204 3.21,25.33 L8.63,28.46 L2.84,30 C0.861620561,30.5894555 -0.28431085,32.6505343 0.259079217,34.6420589 C0.802469285,36.6335835 2.8364027,37.827032 4.84,37.33 L17.9,33.82 L18.8,34.34 L24.61,40.17 L19.61,45.33 L17.89,46.33 L4.81,42.81 C3.50240794,42.4527344 2.10354413,42.8201995 1.14034702,43.7739746 C0.177149916,44.7277497 -0.204047931,46.1229339 0.140347022,47.4339746 C0.484741975,48.7450153 1.50240794,49.7727344 2.81,50.13 L8.58,51.68 L3.16,54.81 C1.34850607,55.8703867 0.739613365,58.198506 1.80000007,60.01 C2.86038677,61.8214939 5.18850603,62.4303867 7,61.37 L12.42,58.25 L10.86,64 C10.5027344,65.3075921 10.8701994,66.7064559 11.8239746,67.669653 C12.7777497,68.6328501 14.1729339,69.014048 15.4839746,68.669653 C16.7950153,68.3252581 17.8227344,67.3075921 18.18,66 L21.69,52.9 L22.59,52.39 L30.41,50.3 L32.51,58.11 L32.51,59.11 L22.93,68.7 C21.4498769,70.1801231 21.4498769,72.5798769 22.93,74.06 C24.4101231,75.5401231 26.8098769,75.5401231 28.29,74.06 L32.51,69.84 L32.51,76.09 C32.4379923,77.4923038 33.1451543,78.8200278 34.3490013,79.5427958 C35.5528482,80.2655637 37.0571518,80.2655637 38.2609987,79.5427958 C39.4648457,78.8200278 40.1720077,77.4923038 40.1,76.09 L40.1,69.86 L44.32,74.08 C45.2774718,75.0374718 46.6730173,75.4114072 47.9809481,75.0609482 C49.288879,74.7104892 50.3104892,73.688879 50.6609482,72.3809481 C51.0114072,71.0730173 50.6374718,69.6774718 49.68,68.72 L40.1,59.13 L40.1,57.13 L42.1,50.23 L50.1,52.35 L51,52.86 L54.43,66 C54.7872656,67.3075921 55.8149847,68.325258 57.1260254,68.669653 C58.4370661,69.0140479 59.8322503,68.6328501 60.7860254,67.669653 C61.7398005,66.7064559 62.1072656,65.3075921 61.75,64 L60.21,58.24 L65.63,61.36 C67.433394,62.3263735 69.678262,61.6869518 70.701784,59.9153676 C71.725306,58.1437834 71.157964,55.8796244 69.42,54.8 L64,51.68 L69.76,50.13 C71.7813622,49.5777153 72.9722847,47.4913622 72.42,45.47 C71.8677153,43.4486378 69.7813622,42.2577153 67.76,42.81 L67.8,42.81 Z M33.12,43.25 L33.12,43.25 C31.3707701,41.4908261 31.3707701,38.6491739 33.12,36.89 L33.12,36.89 C33.964158,36.0442376 35.1100453,35.5689582 36.305,35.5689582 C37.4999547,35.5689582 38.645842,36.0442376 39.49,36.89 L39.49,36.89 C41.2392299,38.6491739 41.2392299,41.4908261 39.49,43.25 L39.49,43.25 C38.645842,44.0957624 37.4999547,44.5710418 36.305,44.5710418 C35.1100453,44.5710418 33.964158,44.0957624 33.12,43.25 Z" fill="url(#linearGradient-6)"></path>
            </g>
        </g>
    </g>
</svg>
