<?xml version="1.0" encoding="UTF-8"?>
<svg width="176px" height="176px" viewBox="0 0 176 176" version="1.1" xmlns="http://www.w3.org/2000/svg" xmlns:xlink="http://www.w3.org/1999/xlink">
    <title>날씨아이콘_약한눈</title>
    <defs>
        <linearGradient x1="12.2444175%" y1="8.80107882%" x2="74.0751349%" y2="76.1113609%" id="linearGradient-1">
            <stop stop-color="#C7DFFF" offset="0%"></stop>
            <stop stop-color="#C7DFFF" offset="0%"></stop>
            <stop stop-color="#A6CDFF" offset="100%"></stop>
        </linearGradient>
        <linearGradient x1="12.7283717%" y1="8.83218842%" x2="73.5248052%" y2="76.0549558%" id="linearGradient-2">
            <stop stop-color="#C7DFFF" offset="0%"></stop>
            <stop stop-color="#C7DFFF" offset="0%"></stop>
            <stop stop-color="#A6CDFF" offset="100%"></stop>
        </linearGradient>
        <linearGradient x1="8.8275748%" y1="12.0211391%" x2="76.1814298%" y2="74.2310562%" id="linearGradient-3">
            <stop stop-color="#C7DFFF" offset="0%"></stop>
            <stop stop-color="#C7DFFF" offset="0%"></stop>
            <stop stop-color="#A6CDFF" offset="100%"></stop>
        </linearGradient>
        <linearGradient x1="-25.0018707%" y1="84.8081663%" x2="35.2039791%" y2="151.458332%" id="linearGradient-4">
            <stop stop-color="#C7DFFF" offset="0%"></stop>
            <stop stop-color="#C7DFFF" offset="0%"></stop>
            <stop stop-color="#A6CDFF" offset="100%"></stop>
        </linearGradient>
        <linearGradient x1="18.8566733%" y1="15.9085808%" x2="80.8408364%" y2="84.0332552%" id="linearGradient-5">
            <stop stop-color="#C7DFFF" offset="0%"></stop>
            <stop stop-color="#C7DFFF" offset="0%"></stop>
            <stop stop-color="#A6CDFF" offset="100%"></stop>
        </linearGradient>
    </defs>
    <style type="text/css">
      <![CDATA[
      #snow-header-0 {
      -webkit-transform-origin: 20.5% 22.5%; -webkit-animation: snow-header-anim-0 20s linear infinite;
      transform-origin: 20.5% 22.5%; animation: snow-header-anim-0 20s linear infinite;
      }
      @-webkit-keyframes snow-header-anim-0 {
      0% { -webkit-transform: rotate(0deg); }
      100% { -webkit-transform: rotate(360deg); }
      }
      @keyframes snow-header-anim-0 {
      0% { transform: rotate(0deg); }
      100% { transform: rotate(360deg); }
      }
      #snow-contain-1 {
      -webkit-animation: snow-contain-anim-1 3s linear infinite;
      animation: snow-contain-anim-1 3s linear infinite;
      }
      @-webkit-keyframes snow-contain-anim-1 {
      0% { opacity: 1; -webkit-transform: translate(0px, 0px); }
      30% { opacity: 1; }
      50% { opacity: 0; -webkit-transform: translate(10px, 20px); }
      50.01% { opacity: 0; -webkit-transform: translate(-5px, -10px); }
      70% { opacity: 1; }
      100% { opacity: 1; -webkit-transform: translate(0px, 0px); }
      }
      @keyframes snow-contain-anim-1 {
      0% { opacity: 1; transform: translate(0px, 0px); }
      30% { opacity: 1; }
      50% { opacity: 0; transform: translate(10px, 20px); }
      50.01% { opacity: 0; transform: translate(-5px, -10px); }
      70% { opacity: 1; }
      100% { opacity: 1; transform: translate(0px, 0px); }
      }
      #snow-header-1 {
      -webkit-transform-origin: 55% 28%; -webkit-animation: snow-header-anim-1 3s linear infinite;
      transform-origin: 55% 28%; animation: snow-header-anim-1 3s linear infinite;
      }
      @-webkit-keyframes snow-header-anim-1 {
      0% { -webkit-transform: rotate(0deg); }
      50% { -webkit-transform: rotate(45deg); }
      50.01% { -webkit-transform: rotate(-45deg); }
      100% { -webkit-transform: rotate(0deg); }
      }
      @keyframes snow-header-anim-1 {
      0% { transform: rotate(0deg); }
      50% { transform: rotate(45deg); }
      50.01% { transform: rotate(-45deg); }
      100% { transform: rotate(0deg); }
      }
      #snow-contain-2 {
      -webkit-animation: snow-contain-anim-2 3s linear infinite;
      animation: snow-contain-anim-2 3s linear infinite;
      }
      @-webkit-keyframes snow-contain-anim-2 {
      0% { opacity: 1; -webkit-transform: translate(0px, 0px); }
      10% { opacity: 1; }
      30% { opacity: 0; -webkit-transform: translate(-2px, 4px); }
      30.01% { opacity: 0; -webkit-transform: translate(5px, -10px); }
      50% { opacity: 1; }
      100% { opacity: 1; -webkit-transform: translate(0px, 0px); }
      }
      @keyframes snow-contain-anim-2 {
      0% { opacity: 1; transform: translate(0px, 0px); }
      10% { opacity: 1; }
      30% { opacity: 0; transform: translate(-2px, 4px); }
      30.01% { opacity: 0; transform: translate(5px, -10px); }
      50% { opacity: 1; }
      100% { opacity: 1; transform: translate(0px, 0px); }
      }
      #snow-header-2 {
      -webkit-transform-origin: 23% 58%; -webkit-animation: snow-header-anim-2 3s linear infinite;
      transform-origin: 23% 58%; animation: snow-header-anim-2 3s linear infinite;
      }
      @-webkit-keyframes snow-header-anim-2 {
      0% { -webkit-transform: rotate(0deg); }
      30% { -webkit-transform: rotate(-45deg); }
      30.01% { -webkit-transform: rotate(125deg); }
      100% { -webkit-transform: rotate(0deg); }
      }
      @keyframes snow-header-anim-2 {
      0% { transform: rotate(0deg); }
      30% { transform: rotate(-45deg); }
      30.01% { transform: rotate(125deg); }
      100% { transform: rotate(0deg); }
      }
      #snow-contain-3 {
      -webkit-animation: snow-contain-anim-3 3s linear infinite;
      animation: snow-contain-anim-3 3s linear infinite;
      }
      @-webkit-keyframes snow-contain-anim-3 {
      0% { opacity: 1; -webkit-transform: translate(0px, 0px); }
      50% { opacity: 1; }
      70% { opacity: 0; -webkit-transform: translate(-5px, 10px); }
      70.01% { opacity: 0; -webkit-transform: translate(3px, -4px); }
      80% { opacity: 1; }
      100% { opacity: 1; -webkit-transform: translate(0px, 0px); }
      }
      @keyframes snow-contain-anim-3 {
      0% { opacity: 1; transform: translate(0px, 0px); }
      50% { opacity: 1; }
      70% { opacity: 0; transform: translate(-5px, 10px); }
      70.01% { opacity: 0; transform: translate(3px, -4px); }
      80% { opacity: 1; }
      100% { opacity: 1; transform: translate(0px, 0px); }
      }
      #snow-header-3 {
      -webkit-transform-origin: 55% 60%; -webkit-animation: snow-header-anim-3 3s linear infinite;
      transform-origin: 55% 60%; animation: snow-header-anim-3 3s linear infinite;
      }
      @-webkit-keyframes snow-header-anim-3 {
      0% { -webkit-transform: rotate(0deg); }
      70% { -webkit-transform: rotate(-90deg); }
      70.01% { -webkit-transform: rotate(25deg); }
      100% { -webkit-transform: rotate(0deg); }
      }
      @keyframes snow-header-anim-3 {
      0% { transform: rotate(0deg); }
      70% { transform: rotate(-90deg); }
      70.01% { transform: rotate(25deg); }
      100% { transform: rotate(0deg); }
      }
      #snow-contain-4 {
      -webkit-animation: snow-contain-anim-4 3s linear infinite;
      animation: snow-contain-anim-4 3s linear infinite;
      }
      @-webkit-keyframes snow-contain-anim-4 {
      0% { opacity: 1; -webkit-transform: translate(0px, 0px); }
      30% { opacity: 1; }
      50% { opacity: 0; -webkit-transform: translate(3px, 6px); }
      50.01% { opacity: 0; -webkit-transform: translate(-3px, -6px); }
      70% { opacity: 1; }
      100% { opacity: 1; -webkit-transform: translate(0px, 0px); }
      }
      @keyframes snow-contain-anim-4 {
      0% { opacity: 1; transform: translate(0px, 0px); }
      30% { opacity: 1; }
      50% { opacity: 0; transform: translate(3px, 6px); }
      50.01% { opacity: 0; transform: translate(-3px, -6px); }
      70% { opacity: 1; }
      100% { opacity: 1; transform: translate(0px, 0px); }
      }
      #snow-header-4 {
      -webkit-transform-origin: 40% 43%; -webkit-animation: snow-header-anim-4 3s linear infinite;
      transform-origin: 40% 43%; animation: snow-header-anim-4 3s linear infinite;
      }
      @-webkit-keyframes snow-header-anim-4 {
      0% { -webkit-transform: rotate(0deg); }
      50% { -webkit-transform: rotate(45deg); }
      50.01% { -webkit-transform: rotate(-45deg); }
      100% { -webkit-transform: rotate(0deg); }
      }
      @keyframes snow-header-anim-4 {
      0% { transform: rotate(0deg); }
      50% { transform: rotate(45deg); }
      50.01% { transform: rotate(-45deg); }
      100% { transform: rotate(0deg); }
      }
      ]]>
    </style>
    <g id="날씨아이콘_약한눈" stroke="none" stroke-width="1" fill="none" fill-rule="evenodd">
        <g id="아이콘" transform="translate(30.000000, 24.000000)" fill-rule="nonzero">
            <g id="snow-contain-1">
                <path id="snow-header-1" d="M106.17,50.13 L104.33,49.07 L106.17,48 C106.92821,47.5646686 107.481962,46.8454468 107.708987,46.0011388 C107.936012,45.1568308 107.817637,44.2568816 107.38,43.5 L107.38,43.5 C106.94274,42.7411086 106.221729,42.1871722 105.375796,41.9602145 C104.529863,41.7332568 103.628405,41.8518968 102.87,42.29 L101,43.35 L101,41.23 C101,40.0510235 100.371024,38.9616042 99.3500001,38.3721159 C98.3289765,37.7826277 97.0710235,37.7826277 96.0499999,38.3721159 C95.0289763,38.9616042 94.3999999,40.0510235 94.4,41.23 L94.4,43.35 L92.56,42.29 C91.8031184,41.8523625 90.9031692,41.7339877 90.0588612,41.9610127 C89.2145532,42.1880378 88.4953314,42.7417897 88.06,43.5 L88.06,43.5 C87.6248183,44.2605275 87.5109978,45.1632336 87.743773,46.0079825 C87.9765483,46.8527315 88.536686,47.5697247 89.3,48 L91.14,49.07 L89.3,50.13 C88.2089232,50.68106 87.5118215,51.790082 87.488328,53.0121965 C87.4648345,54.234311 88.118798,55.3693053 89.1878897,55.9618917 C90.2569814,56.5544781 91.5660577,56.5075762 92.59,55.84 L94.43,54.78 L94.43,56.9 C94.43,58.7225397 95.9074603,60.2 97.73,60.2 C99.5525397,60.2 101.03,58.7225397 101.03,56.9 L101.03,54.78 L102.87,55.84 C103.892953,56.4855392 105.187106,56.5196793 106.242672,55.9289719 C107.298237,55.3382644 107.946029,54.2173884 107.930872,53.0078744 C107.915714,51.7983603 107.240037,50.6940698 106.17,50.13 L106.17,50.13 Z" fill="url(#linearGradient-1)"></path>
            </g>
            <g id="snow-contain-2">
                <path id="snow-header-2" d="M47.28,103.78 L45.6,102.78 L47.28,101.78 C47.9743191,101.384146 48.4819788,100.727603 48.690365,99.956011 C48.8987511,99.1844189 48.790635,98.3615712 48.39,97.67 L48.39,97.67 C47.9941358,96.9729511 47.3357708,96.463323 46.5617557,96.2547898 C45.7877405,96.0462566 44.9624615,96.1561651 44.27,96.56 L42.58,97.56 L42.58,95.62 C42.58,93.9631458 41.2368542,92.62 39.58,92.62 C37.9231458,92.62 36.58,93.9631458 36.58,95.62 L36.58,97.56 L34.9,96.56 C34.2075385,96.1561651 33.3822595,96.0462566 32.6082443,96.2547898 C31.8342292,96.463323 31.1758642,96.9729511 30.78,97.67 L30.78,97.67 C30.379365,98.3615712 30.2712489,99.1844189 30.479635,99.956011 C30.6880212,100.727603 31.1956809,101.384146 31.89,101.78 L33.57,102.78 L31.89,103.78 C30.9575367,104.315898 30.3818035,105.308552 30.3796735,106.384038 C30.3775435,107.459524 30.9493403,108.454451 31.8796736,108.994038 C32.8100068,109.533626 33.9575368,109.535898 34.89,109 L36.57,108 L36.57,110 C36.57,111.656854 37.9131458,113 39.57,113 C41.2268542,113 42.57,111.656854 42.57,110 L42.57,108 L44.26,109 C45.1924632,109.535898 46.3399932,109.533626 47.2703264,108.994038 C48.2006597,108.454451 48.7724565,107.459524 48.7703265,106.384038 C48.7681965,105.308552 48.1924633,104.315898 47.26,103.78 L47.28,103.78 Z" fill="url(#linearGradient-2)"></path>
            </g>
            <g id="snow-contain-3">
                <path id="snow-header-3" d="M103.08,103 L101.75,103 L102.42,101.84 C102.986012,100.851042 102.646319,99.5905992 101.66,99.02 L101.66,99.02 C101.185586,98.7454183 100.6213,98.6712371 100.092037,98.8138752 C99.562775,98.9565132 99.1121858,99.3042069 98.84,99.78 L98.17,100.93 L97.51,99.78 C97.1709085,99.0850454 96.4727413,98.6370337 95.6996984,98.6183352 C94.9266554,98.5996368 94.2076442,99.0133695 93.8353496,99.691117 C93.4630549,100.368864 93.4995581,101.19761 93.93,101.84 L94.6,103 L93.27,103 C92.1306645,102.999987 91.205504,103.920678 91.2,105.06 L91.2,105.06 C91.205504,106.199322 92.1306645,107.120013 93.27,107.12 L94.6,107.12 L93.93,108.28 C93.4526841,109.25824 93.8145189,110.439029 94.7579564,110.981901 C95.7013938,111.524773 96.9040964,111.244248 97.51,110.34 L98.17,109.19 L98.84,110.34 C99.1790915,111.034955 99.8772587,111.482966 100.650302,111.501665 C101.423345,111.520363 102.142356,111.106631 102.51465,110.428883 C102.886945,109.751136 102.850442,108.92239 102.42,108.28 L101.75,107.12 L103.08,107.12 C104.217707,107.12 105.14,106.197707 105.14,105.06 C105.14,103.922293 104.217707,103 103.08,103 L103.08,103 Z" fill="url(#linearGradient-3)" opacity="0.9"></path>
            </g>
            <g id="snow-contain-4">
                <path id="snow-header-4" d="M73,72.18 L72,72.73 L72,71.64 C71.9751864,70.7600576 71.2790616,70.0465297 70.4,70 L70.4,70 C69.4666388,70 68.71,70.7566388 68.71,71.69 L68.71,72.78 L67.77,72.23 C67.2466059,71.9281106 66.6019137,71.9283807 66.0787728,72.2307085 C65.5556318,72.5330364 65.2335196,73.0914912 65.2337728,73.6957085 C65.2340259,74.2999258 65.5566059,74.8581106 66.08,75.16 L67.02,75.7 L66.08,76.24 C65.6912085,76.4638755 65.4073902,76.8331563 65.2910917,77.2664618 C65.1747932,77.6997674 65.2355598,78.1615342 65.46,78.55 L65.46,78.55 C65.9298398,79.3549726 66.9602335,79.6315285 67.77,79.17 L68.71,78.62 L68.71,79.71 C68.6612009,80.3429797 68.971263,80.9499117 69.512745,81.2813358 C70.054227,81.6127598 70.735773,81.6127598 71.277255,81.2813358 C71.818737,80.9499117 72.1287991,80.3429797 72.08,79.71 L72.08,78.62 L73.08,79.17 C73.8845172,79.5908026 74.8777636,79.3007413 75.3293766,78.5131067 C75.7809896,77.7254721 75.5295727,76.7217473 74.76,76.24 L73.82,75.7 L74.76,75.16 C75.5829043,74.6739894 75.8560106,73.6129043 75.37,72.79 C74.8839894,71.9670957 73.8229043,71.6939894 73,72.18 Z" fill="url(#linearGradient-4)" opacity="0.8"></path>
            </g>
            <path id="snow-header-0" d="M58.35,37.55 L47.12,40.55 L45.64,39.7 L41.36,35.27 L46.36,30.27 L47.13,29.82 L58.36,32.82 C59.5192919,33.243563 60.8184621,32.9738982 61.7134134,32.123942 C62.6083647,31.2739859 62.944629,29.9904406 62.5813775,28.8108594 C62.2181261,27.6312783 61.2180559,26.7592565 60,26.56 L55,25.23 L59.65,22.55 C60.7102768,21.9945153 61.380865,20.9026533 61.3968301,19.7057843 C61.4127951,18.5089153 60.7715691,17.399555 59.7264861,16.8159868 C58.6814032,16.2324187 57.4005641,16.2685093 56.39,16.91 L51.83,19.6 L53.16,14.6 C53.5785608,13.4336926 53.2997123,12.1309268 52.4404151,11.2381366 C51.5811179,10.3453463 50.289961,10.0169121 49.108509,10.3905929 C47.9270571,10.7642737 47.0596057,11.7754528 46.87,13 L43.87,24.23 L42.39,25.08 L36.3,26.58 L34.58,20.58 L34.58,18.88 L42.8,10.65 C44.084062,9.37974508 44.0952549,7.30906204 42.825,6.025 C41.5547451,4.74093796 39.484062,4.72974508 38.2,6 L34.58,9.63 L34.58,4.27 C34.6468684,3.06404927 34.0415077,1.91995822 33.0068475,1.29684755 C31.9721874,0.673736875 30.6778126,0.673736875 29.6431525,1.29684755 C28.6084923,1.91995822 28.0031316,3.06404927 28.07,4.27 L28.07,9.64 L24.45,6 C23.1797451,4.72974511 21.1202549,4.72974512 19.85,6.00000003 C18.5797451,7.27025495 18.5797451,9.32974507 19.85,10.6 L28.07,18.83 L28.07,19.72 L26.23,26.54 L20.23,25.04 L18.75,24.19 L15.77,13 C15.4698969,11.878186 14.5941096,11.0016902 13.4725387,10.7006801 C12.3509677,10.3996701 11.1540065,10.7198763 10.3325386,11.5406802 C9.51107077,12.3614841 9.18989687,13.558186 9.49,14.68 L10.82,19.68 L6.17,16.99 C4.6217796,16.178879 2.70935651,16.7330634 1.834689,18.2462919 C0.960021487,19.7595203 1.43437029,21.6932927 2.91,22.63 L7.56,25.31 L2.56,26.64 C1.438186,26.9418894 0.562643185,27.8193273 0.263180091,28.9417915 C-0.0362830039,30.0642556 0.285829188,31.2612169 1.10818011,32.0817915 C1.93053104,32.9023662 3.12818603,33.2218895 4.25,32.92 L15.48,29.92 L16.25,30.37 L21.25,35.37 L17,39.71 L15.52,40.56 L4.29,37.56 C3.16818604,37.2581105 1.97053108,37.5776338 1.14818017,38.3982085 C0.325829264,39.2187832 0.00371707718,40.4157444 0.303180158,41.5382085 C0.602643239,42.6606726 1.47818602,43.5381106 2.6,43.84 L7.6,45.17 L2.95,47.85 C1.47437029,48.7867073 1.00002149,50.7204797 1.874689,52.2337081 C2.74935651,53.7469366 4.6617796,54.301121 6.21,53.49 L10.86,50.8 L9.53,55.75 C9.30103034,56.5855476 9.41514196,57.477932 9.84699375,58.2289786 C10.2788455,58.9800252 10.9926895,59.5275635 11.83,59.75 C12.6669132,59.9786372 13.5605013,59.8631624 14.3118007,59.429287 C15.0631001,58.9954116 15.6097374,58.2791562 15.83,57.44 L18.83,46.21 L19.61,45.77 L26.26,44 L28.07,50.7 L28.07,51.59 L19.85,59.82 C18.5797452,61.0902549 18.5797452,63.149745 19.8500001,64.4199999 C21.120255,65.6902548 23.1797451,65.6902548 24.45,64.42 L28.07,60.79 L28.07,66.16 C28.0031316,67.3659507 28.6084923,68.5100418 29.6431525,69.1331525 C30.6778126,69.7562631 31.9721874,69.7562631 33.0068475,69.1331525 C34.0415077,68.5100418 34.6468684,67.3659507 34.58,66.16 L34.58,60.75 L38.2,64.38 C39.4702549,65.6502548 41.529745,65.6502548 42.7999999,64.3799999 C44.0702548,63.109745 44.0702548,61.0502549 42.8,59.78 L34.58,51.55 L34.58,49.85 L36.26,43.93 L43.09,45.75 L43.87,46.19 L46.87,57.42 C47.4066399,59.0668323 49.1374095,60.0065066 50.8108116,59.5595566 C52.4842137,59.1126066 53.5159565,57.4350911 53.16,55.74 L51.83,50.79 L56.48,53.48 C57.4905641,54.1214907 58.7714032,54.1575813 59.8164861,53.5740132 C60.8615691,52.990445 61.5027951,51.8810847 61.4868301,50.6842157 C61.470865,49.4873467 60.8002768,48.3954847 59.74,47.84 L55.09,45.16 L60.09,43.83 C61.211814,43.5281106 62.0873568,42.6506726 62.3868198,41.5282085 C62.6862829,40.4057444 62.3641707,39.2087832 61.5418198,38.3882085 C60.7194689,37.5676338 59.521814,37.2481105 58.4,37.55 L58.35,37.55 Z M28.84,37.68 L28.84,37.68 C28.1731264,37.0189994 27.7979831,36.118958 27.7979831,35.18 C27.7979831,34.241042 28.1731264,33.3410006 28.84,32.68 L28.84,32.68 C29.5010006,32.0131264 30.401042,31.6379831 31.34,31.6379831 C32.278958,31.6379831 33.1789994,32.0131264 33.84,32.68 L33.84,32.68 C34.5068736,33.3410006 34.8820169,34.241042 34.8820169,35.18 C34.8820169,36.118958 34.5068736,37.0189994 33.84,37.68 L33.84,37.68 C33.1789994,38.3468736 32.278958,38.7220169 31.34,38.7220169 C30.401042,38.7220169 29.5010006,38.3468736 28.84,37.68 L28.84,37.68 Z" fill="url(#linearGradient-5)"></path>
        </g>
    </g>
</svg>
