<?xml version="1.0" encoding="UTF-8"?>
<svg width="176px" height="176px" viewBox="0 0 176 176" version="1.1" xmlns="http://www.w3.org/2000/svg" xmlns:xlink="http://www.w3.org/1999/xlink">
    <title>날씨아이콘_흐림</title>
    <defs>
        <linearGradient x1="3.675758%" y1="24.4891542%" x2="69.0156445%" y2="68.7729691%" id="linearGradient-1">
            <stop stop-color="#ACAEB3" offset="0%"></stop>
            <stop stop-color="#96989C" offset="100%"></stop>
        </linearGradient>
        <linearGradient x1="6.76652373%" y1="-7.33210297%" x2="48.4161738%" y2="47.8953668%" id="linearGradient-2">
            <stop stop-color="#FCFCFC" offset="0%"></stop>
            <stop stop-color="#FFFFFF" stop-opacity="0" offset="100%"></stop>
        </linearGradient>
        <path d="M102.272414,21.7256685 C93.8602708,7.22212383 77.8909231,-1.17150372 61.1904793,0.13264771 C44.4900355,1.43679914 30.0136145,12.2079619 23.9491724,27.841995 C9.94679175,31.2924095 0.0781017813,43.8297917 1.3034784e-14,58.2675052 C1.3034784e-14,75.6246481 14.253931,89.6848521 31.8374483,89.6848521 L97.9246897,89.6848521 C117.021655,89.6848521 132.50469,74.4032195 132.50469,55.5583215 C132.388497,38.261965 119.428256,23.7582819 102.272414,21.7256685 Z" id="path-3"></path>
        <filter x="-81.1%" y="-116.7%" width="262.1%" height="333.3%" filterUnits="objectBoundingBox" id="filter-5">
            <feOffset dx="0" dy="30" in="SourceAlpha" result="shadowOffsetOuter1"></feOffset>
            <feGaussianBlur stdDeviation="5" in="shadowOffsetOuter1" result="shadowBlurOuter1"></feGaussianBlur>
            <feColorMatrix values="0 0 0 0 0   0 0 0 0 0   0 0 0 0 0  0 0 0 0.4 0" type="matrix" in="shadowBlurOuter1" result="shadowMatrixOuter1"></feColorMatrix>
            <feMerge>
                <feMergeNode in="shadowMatrixOuter1"></feMergeNode>
                <feMergeNode in="SourceGraphic"></feMergeNode>
            </feMerge>
        </filter>
        <linearGradient x1="29.2522436%" y1="1.60252679%" x2="59.1468929%" y2="71.326538%" id="linearGradient-6">
            <stop stop-color="#FFFFFF" offset="0%"></stop>
            <stop stop-color="#FFFFFF" stop-opacity="0" offset="100%"></stop>
        </linearGradient>
        <linearGradient x1="37.455604%" y1="-1.53411204%" x2="52.3193015%" y2="59.3202141%" id="linearGradient-7">
            <stop stop-color="#FFFFFF" offset="0%"></stop>
            <stop stop-color="#FFFFFF" stop-opacity="0" offset="100%"></stop>
        </linearGradient>
        <linearGradient x1="29.2012741%" y1="2.19505695%" x2="59.1693634%" y2="71.0654373%" id="linearGradient-8">
            <stop stop-color="#FFFFFF" offset="0%"></stop>
            <stop stop-color="#FFFFFF" stop-opacity="0" offset="100%"></stop>
        </linearGradient>
        <linearGradient x1="37.4247871%" y1="-0.903180019%" x2="52.3249992%" y2="59.2061067%" id="linearGradient-9">
            <stop stop-color="#FFFFFF" offset="0%"></stop>
            <stop stop-color="#FFFFFF" stop-opacity="0" offset="100%"></stop>
        </linearGradient>
    </defs>
    <style type="text/css">
      <![CDATA[
      #cloud-front {
      -webkit-animation: cloud-front-anim 2s cubic-bezier(0.445, 0.05, 0.55, 0.95) alternate infinite;
      animation: cloud-front-anim 2s cubic-bezier(0.445, 0.05, 0.55, 0.95) alternate infinite;
      }
      @-webkit-keyframes cloud-front-anim {
      0% { -webkit-transform: translate(0px, 0); }
      100% { -webkit-transform: translate(8px, 0); }
      }
      @keyframes cloud-front-anim {
      0% { transform: translate(0px, 0); }
      100% { transform: translate(8px, 0); }
      }
      #cloud-back {
      -webkit-animation: cloud-back-anim 2s cubic-bezier(0.445, 0.05, 0.55, 0.95) alternate infinite;
      animation: cloud-back-anim 2s cubic-bezier(0.445, 0.05, 0.55, 0.95) alternate infinite;
      }
      @-webkit-keyframes cloud-back-anim {
      0% { -webkit-transform: translate(0px, 0); }
      100% { -webkit-transform: translate(-8px, 0); }
      }
      @keyframes cloud-back-anim {
      0% { transform: translate(0px, 0); }
      100% { transform: translate(-8px, 0); }
      }
      ]]>
    </style>
    <g id="날씨아이콘_흐림" stroke="none" stroke-width="1" fill="none" fill-rule="evenodd">
        <g id="아이콘" transform="translate(18.000000, 27.839999)">
            <g id="큰구름" transform="translate(0.000000, 0.160001)" fill-rule="nonzero">
                <g id="cloud-back">
                    <path d="M102.272414,21.7285724 C93.8602708,7.22502775 77.8909231,-1.1685998 61.1904793,0.135551632 C44.4900355,1.43970306 30.0136145,12.2108658 23.9491724,27.8448989 C9.94679175,31.2953134 0.0781017813,43.8326956 1.3034784e-14,58.2704091 C1.3034784e-14,75.627552 14.253931,89.6877561 31.8374483,89.6877561 L97.9246897,89.6877561 C117.021655,89.6877561 132.50469,74.4061234 132.50469,55.5612255 C132.388497,38.2648689 119.428256,23.7611858 102.272414,21.7285724 Z" id="Path" fill="url(#linearGradient-1)"></path>
                    <path d="M108.179449,43.6408173 C108.183158,61.2964295 97.5635689,77.2156218 81.2729738,83.9747061 C64.9823787,90.7337905 46.22925,87.0015489 33.7588413,74.5184591 C21.2884327,62.0353692 17.5568212,43.2600056 24.3041906,26.947991 C31.05156,10.6359764 46.9489996,-6.52539247e-15 64.5829655,-6.52539247e-15 C76.1446281,-0.00243502883 87.2335876,4.59434807 95.4097779,12.7788528 C103.585968,20.9633575 108.179449,32.0649618 108.179449,43.6408173 Z" id="Path" fill="url(#linearGradient-2)" opacity="0.15"></path>
                </g>
            </g>
            <g id="구름" transform="translate(0.000000, 0.160001)">
                <mask id="mask-4" fill="white">
                    <use xlink:href="#path-3"></use>
                </mask>
                <use id="Mask" fill-opacity="0" fill="url(#linearGradient-1)" fill-rule="nonzero" xlink:href="#path-3"></use>
                <g filter="url(#filter-5)" mask="url(#mask-4)" fill-rule="nonzero" id="Path">
                    <g id="cloud-front">
                        <g transform="translate(48.652867, 53.316843)">
                            <path d="M93.7947189,37.5986215 C91.8505651,29.4089477 85.4640069,23.0145497 77.2843741,21.0680093 C76.0141812,20.7748139 74.7230618,20.5813688 73.4227879,20.4894379 C70.6712304,10.4322358 62.5229266,2.76697497 52.3262362,0.643519496 C44.8205849,-0.974897858 36.9803962,0.553686023 30.6296993,4.87364425 C24.2790024,9.19360247 19.9715007,15.9282874 18.7093396,23.5108664 C7.64310065,24.80768 -0.525213802,34.4705912 0.0263538132,45.6123702 C0.577921428,56.7541491 9.66056942,65.560963 20.80065,65.7557644 L71.8176155,65.7557644 C78.7848451,65.745685 85.360635,62.5291083 89.6507372,57.0326141 C93.9408395,51.5361199 95.4688923,44.3700245 93.7947189,37.5986215 Z" fill="#DEDFE3"></path>
                            <path d="M73.8172017,22.1700501 C75.809677,31.5023239 72.943817,41.2097947 66.2040891,47.957796 C59.4643611,54.7057974 49.7687922,57.5751753 40.4479603,55.5802542 C29.6258065,53.3375715 21.1694105,44.8707949 18.9294775,34.0353562 C16.9319027,24.7022118 19.7960577,14.991514 26.5371416,8.24215503 C33.2782254,1.49279609 42.9770175,-1.37487486 52.2987189,0.62515215 C63.1208728,2.86783479 71.5772687,11.3346114 73.8172017,22.1700501 L73.8172017,22.1700501 Z" fill="url(#linearGradient-6)" opacity="0.59"></path>
                            <path d="M93.7947189,37.5986215 C95.7156219,45.3389039 93.4457699,53.521 87.8130521,59.1606323 C82.1803343,64.8002645 74.0082699,67.0729029 66.2774775,65.1496419 C58.0978447,63.2031016 51.7112865,56.8087035 49.7671327,48.6190297 C47.8462298,40.8787473 50.1160818,32.6966512 55.7487995,27.057019 C61.3815173,21.4173867 69.5535817,19.1447483 77.2843741,21.0680093 C85.4640069,23.0145497 91.8505651,29.4089477 93.7947189,37.5986215 Z" fill="url(#linearGradient-7)" opacity="0.4"></path>
                        </g>
                    </g>
                </g>
            </g>
            <g id="구름" transform="translate(49.000000, 53.160001)" fill-rule="nonzero">
                <g id="cloud-front">
                <path d="M94.315078,37.5289945 C92.3601383,29.3544867 85.9381484,22.9719301 77.7131362,21.0289945 C76.4358965,20.736342 75.1376141,20.5432551 73.8301265,20.4514945 C71.0633038,10.4129169 62.8697945,2.76185094 52.6165343,0.642327794 C45.0692428,-0.973092491 37.1855579,0.552660679 30.7996283,4.86461898 C24.4136987,9.17657728 20.0822996,15.8987906 18.8131362,23.4673278 C7.68550343,24.7617399 -0.528127609,34.4067568 0.0265000202,45.5279028 C0.58112765,56.6490489 9.71416481,65.4395538 20.9160489,65.6339945 L72.2160489,65.6339945 C79.2219316,65.6239337 85.834203,62.4133137 90.1481061,56.9269981 C94.4620092,51.4406826 95.9985395,44.2878578 94.315078,37.5289945 Z" id="Path" fill="#DEDFE3"></path>
                <path d="M74.2267285,22.1289945 C76.2302577,31.4439863 73.3484984,41.1334802 66.5713794,47.8689853 C59.7942605,54.6044903 50.044902,57.4685546 40.6723595,55.4773278 C29.790166,53.2387983 21.2868553,44.7877008 19.0344955,33.9723278 C17.0258383,24.656467 19.9058833,14.9637519 26.6843657,8.22689178 C33.4628481,1.49003165 43.2154475,-1.37232879 52.5888644,0.62399446 C63.4710579,2.86252398 71.9743687,11.3136214 74.2267285,22.1289945 L74.2267285,22.1289945 Z" id="Path" fill="url(#linearGradient-8)" opacity="0.59"></path>
                <path d="M94.315078,37.5289945 C96.2466378,45.254943 93.964193,53.421887 88.3002258,59.0510756 C82.6362585,64.6802641 74.4188567,66.9486938 66.6451751,65.0289945 C58.4201629,63.0860588 51.998173,56.7035022 50.0432333,48.5289945 C48.1116735,40.8030459 50.3941183,32.6361019 56.0580855,27.0069134 C61.7220528,21.3777249 69.9394546,19.1092951 77.7131362,21.0289945 C85.9381484,22.9719301 92.3601383,29.3544867 94.315078,37.5289945 Z" id="Path" fill="url(#linearGradient-9)" opacity="0.4"></path>
                </g>
            </g>
        </g>
    </g>
</svg>
