<?xml version="1.0" encoding="UTF-8"?>
<svg width="176px" height="176px" viewBox="0 0 176 176" version="1.1" xmlns="http://www.w3.org/2000/svg" xmlns:xlink="http://www.w3.org/1999/xlink">
    <title>날씨아이콘_강한눈</title>
    <defs>
        <linearGradient x1="37.9118297%" y1="17.1285457%" x2="63.4946372%" y2="87.4136019%" id="linearGradient-1">
            <stop stop-color="#C7DFFF" offset="0%"></stop>
            <stop stop-color="#C7DFFF" offset="0%"></stop>
            <stop stop-color="#A6CDFF" offset="100%"></stop>
        </linearGradient>
        <linearGradient x1="13.5806215%" y1="21.1402841%" x2="91.0017505%" y2="82.2122967%" id="linearGradient-2">
            <stop stop-color="#C7DFFF" offset="0%"></stop>
            <stop stop-color="#C7DFFF" offset="0%"></stop>
            <stop stop-color="#A6CDFF" offset="100%"></stop>
        </linearGradient>
        <linearGradient x1="13.8227934%" y1="21.5763166%" x2="90.6835655%" y2="82.2503129%" id="linearGradient-3">
            <stop stop-color="#C7DFFF" offset="0%"></stop>
            <stop stop-color="#C7DFFF" offset="0%"></stop>
            <stop stop-color="#A6CDFF" offset="100%"></stop>
        </linearGradient>
        <linearGradient x1="16.8182698%" y1="37.8300485%" x2="87.013741%" y2="63.5829156%" id="linearGradient-4">
            <stop stop-color="#C7DFFF" offset="0%"></stop>
            <stop stop-color="#C7DFFF" offset="0%"></stop>
            <stop stop-color="#A6CDFF" offset="100%"></stop>
        </linearGradient>
        <linearGradient x1="33.4745518%" y1="29.0522012%" x2="68.4603551%" y2="73.3202614%" id="linearGradient-5">
            <stop stop-color="#C7DFFF" offset="0%"></stop>
            <stop stop-color="#C7DFFF" offset="0%"></stop>
            <stop stop-color="#A6CDFF" offset="100%"></stop>
        </linearGradient>
        <linearGradient x1="0.0223632042%" y1="-13.0697175%" x2="105.795729%" y2="120.600232%" id="linearGradient-6">
            <stop stop-color="#C7DFFF" offset="0%"></stop>
            <stop stop-color="#C7DFFF" offset="0%"></stop>
            <stop stop-color="#A6CDFF" offset="100%"></stop>
        </linearGradient>
        <linearGradient x1="8.72129158%" y1="13.3059084%" x2="75.4896154%" y2="73.236641%" id="linearGradient-7">
            <stop stop-color="#C7DFFF" offset="0%"></stop>
            <stop stop-color="#C7DFFF" offset="0%"></stop>
            <stop stop-color="#A6CDFF" offset="100%"></stop>
        </linearGradient>
        <linearGradient x1="-2.1318837%" y1="88.7844892%" x2="60.2512853%" y2="156.231916%" id="linearGradient-8">
            <stop stop-color="#C7DFFF" offset="0%"></stop>
            <stop stop-color="#C7DFFF" offset="0%"></stop>
            <stop stop-color="#A6CDFF" offset="100%"></stop>
        </linearGradient>
        <linearGradient x1="18.413505%" y1="15.5698061%" x2="81.4727935%" y2="84.4301939%" id="linearGradient-9">
            <stop stop-color="#C7DFFF" offset="0%"></stop>
            <stop stop-color="#C7DFFF" offset="0%"></stop>
            <stop stop-color="#A6CDFF" offset="100%"></stop>
        </linearGradient>
    </defs>
    <style type="text/css">
        <![CDATA[
        #snow-header-0 {
        -webkit-transform-origin: 20.5% 22.5%; -webkit-animation: snow-header-anim-0 15s linear infinite;
        transform-origin: 20.5% 22.5%; animation: snow-header-anim-0 15s linear infinite;
        }
        @-webkit-keyframes snow-header-anim-0 {
        0% { -webkit-transform: rotate(0deg); }
        100% { -webkit-transform: rotate(360deg); }
        }
        @keyframes snow-header-anim-0 {
        0% { transform: rotate(0deg); }
        100% { transform: rotate(360deg); }
        }

        #snow-header-1 {
        -webkit-transform-origin: 15% 15%; -webkit-animation: snow-header-anim-1 25s linear infinite;
        transform-origin: 15% 15%; animation: snow-header-anim-1 25s linear infinite;
        }
        @-webkit-keyframes snow-header-anim-1 {
        0% { transform: rotate(0deg); }
        100% { transform: rotate(-360deg); }
        }
        @keyframes snow-header-anim-1 {
        0% { transform: rotate(0deg); }
        100% { transform: rotate(-360deg); }
        }
        #snow-header-2 {
        -webkit-transform-origin: 11% 11%; -webkit-animation: snow-header-anim-2 20s linear infinite;
        transform-origin: 11% 11%; animation: snow-header-anim-2 20s linear infinite;
        }
        @-webkit-keyframes snow-header-anim-2 {
        0% { transform: rotate(0deg); }
        100% { transform: rotate(360deg); }
        }
        @keyframes snow-header-anim-2 {
        0% { transform: rotate(0deg); }
        100% { transform: rotate(360deg); }
        }
        #snow-contain-3 {
        -webkit-animation: snow-contain-anim-3 2s linear infinite;
        animation: snow-contain-anim-3 2s linear infinite;
        }
        @-webkit-keyframes snow-contain-anim-3 {
        0% { opacity: 1; -webkit-transform: translate(0px, 0px); }
        50% { opacity: 1; }
        70% { opacity: 0; -webkit-transform: translate(-5px, 10px); }
        70.01% { opacity: 0; -webkit-transform: translate(3px, -4px); }
        80% { opacity: 1; }
        100% { opacity: 1; -webkit-transform: translate(0px, 0px); }
        }
        @keyframes snow-contain-anim-3 {
        0% { opacity: 1; transform: translate(0px, 0px); }
        50% { opacity: 1; }
        70% { opacity: 0; transform: translate(-5px, 10px); }
        70.01% { opacity: 0; transform: translate(3px, -4px); }
        80% { opacity: 1; }
        100% { opacity: 1; transform: translate(0px, 0px); }
        }
        #snow-header-3 {
        -webkit-transform-origin: 18% 55%; -webkit-animation: snow-header-anim-3 2s linear infinite;
        transform-origin: 18% 55%; animation: snow-header-anim-3 2s linear infinite;
        }
        @-webkit-keyframes snow-header-anim-3 {
        0% { -webkit-transform: rotate(0deg); }
        70% { -webkit-transform: rotate(-90deg); }
        70.01% { -webkit-transform: rotate(25deg); }
        100% { -webkit-transform: rotate(0deg); }
        }
        @keyframes snow-header-anim-3 {
        0% { transform: rotate(0deg); }
        70% { transform: rotate(-90deg); }
        70.01% { transform: rotate(25deg); }
        100% { transform: rotate(0deg); }
        }
        #snow-contain-4 {
        -webkit-animation: snow-contain-anim-4 2s linear infinite;
        animation: snow-contain-anim-4 2s linear infinite;
        }
        @-webkit-keyframes snow-contain-anim-4 {
        0% { opacity: 1; -webkit-transform: translate(0px, 0px); }
        30% { opacity: 1; }
        50% { opacity: 0; -webkit-transform: translate(10px, 20px); }
        50.01% { opacity: 0; -webkit-transform: translate(-5px, -10px); }
        70% { opacity: 1; }
        100% { opacity: 1; -webkit-transform: translate(0px, 0px); }
        }
        @keyframes snow-contain-anim-4 {
        0% { opacity: 1; transform: translate(0px, 0px); }
        30% { opacity: 1; }
        50% { opacity: 0; transform: translate(3px, 6px); }
        50.01% { opacity: 0; transform: translate(-3px, -6px); }
        70% { opacity: 1; }
        100% { opacity: 1; transform: translate(0px, 0px); }
        }
        #snow-header-4 {
        -webkit-transform-origin: 60% 20%; -webkit-animation: snow-header-anim-4 2s linear infinite;
        transform-origin: 60% 20%; animation: snow-header-anim-4 2s linear infinite;
        }
        @-webkit-keyframes snow-header-anim-4 {
        0% { -webkit-transform: rotate(0deg); }
        50% { -webkit-transform: rotate(45deg); }
        50.01% { -webkit-transform: rotate(-45deg); }
        100% { -webkit-transform: rotate(0deg); }
        }
        @keyframes snow-header-anim-4 {
        0% { transform: rotate(0deg); }
        50% { transform: rotate(45deg); }
        50.01% { transform: rotate(-45deg); }
        100% { transform: rotate(0deg); }
        }
        ]]>
    </style>
    <g id="날씨아이콘_강한눈" stroke="none" stroke-width="1" fill="none" fill-rule="evenodd">
        <g id="아이콘" transform="translate(27.000000, 20.000000)" fill-rule="nonzero">
            <g id="Group" opacity="0.8" transform="translate(42.000000, 97.000000)">
                <g id="snow-header-2">
                    <path d="M14.42,9.38 L14.42,26 L10.24,30.18 C9.82199922,30.5980007 9.65875131,31.2072501 9.81175019,31.7782498 C9.96474908,32.3492494 10.4107506,32.7952509 10.9817502,32.9482498 C11.5527499,33.1012487 12.1619993,32.9380008 12.58,32.52 L14.42,30.68 L14.42,33.41 C14.4872307,34.2742486 15.2081403,34.9412561 16.075,34.9412561 C16.9418597,34.9412561 17.6627693,34.2742486 17.73,33.41 L17.73,30.68 L19.57,32.52 C19.8796973,32.8314427 20.300786,33.0065568 20.74,33.0065568 C21.179214,33.0065568 21.6003027,32.8314427 21.91,32.52 C22.5478166,31.8703878 22.5478166,30.8296122 21.91,30.18 L17.73,26 L17.73,9.38 L21.91,5.19 C22.5561732,4.54382684 22.5561732,3.49617316 21.91,2.85 C21.2638268,2.20382684 20.2161732,2.20382684 19.57,2.85 L17.73,4.7 L17.73,2 C17.7783848,1.37801504 17.4739504,0.781419284 16.9419205,0.455611732 C16.4098906,0.12980418 15.7401094,0.12980418 15.2080795,0.455611732 C14.6760496,0.781419284 14.3716152,1.37801504 14.42,2 L14.42,4.73 L12.58,2.88 C12.2674059,2.5737164 11.8476328,2.40150181 11.41,2.4 C10.7405991,2.39733455 10.135925,2.79937279 9.87939547,3.41767472 C9.62286595,4.03597665 9.76532484,4.74799559 10.24,5.22 L14.42,9.38 Z" id="Path" fill="url(#linearGradient-1)"></path>
                    <path d="M8,15 L22.41,23.32 L24,29 C24.2798319,29.8307635 25.1574038,30.3007395 26.0039902,30.0732194 C26.8505766,29.8456993 27.374324,28.9991188 27.2,28.14 L26.52,25.62 L28.87,27 C29.2480885,27.2225549 29.6999295,27.2832991 30.1233709,27.1684994 C30.5468124,27.0536997 30.9060978,26.7730502 31.12,26.39 C31.3410571,26.0109567 31.4020292,25.5594734 31.2894356,25.1353711 C31.1768421,24.7112687 30.8999576,24.3494819 30.52,24.13 L28.16,22.77 L30.67,22.1 C31.4914442,21.815497 31.9542676,20.9454384 31.7310942,20.1052562 C31.5079208,19.265074 30.6743481,18.7393706 29.82,18.9 L24.1,20.43 L9.7,12.1 L8.17,6.39 C7.8901681,5.55923647 7.0125962,5.08926054 6.1660098,5.31678064 C5.3194234,5.54430074 4.79567603,6.39088122 4.97,7.25 L5.64,9.76 L3.28,8.4 C2.7691102,8.10525581 2.1397844,8.10545743 1.62908356,8.40052892 C1.11838273,8.6956004 0.80389448,9.24071337 0.80408351,9.83052901 C0.804272541,10.4203447 1.11911013,10.9652559 1.63,11.26 L4,12.63 L1.48,13.3 C1.05877786,13.4159778 0.699778635,13.6924072 0.48,14.07 C0.263497346,14.4525404 0.202618384,14.9037609 0.31,15.33 C0.553680315,16.1942828 1.43719723,16.7111402 2.31,16.5 L8,15 Z" id="Path" fill="url(#linearGradient-2)"></path>
                    <path d="M24.1,15 L9.7,23.32 L8.17,29 C7.8901681,29.8307635 7.0125962,30.3007395 6.1660098,30.0732194 C5.3194234,29.8456993 4.79567603,28.9991188 4.97,28.14 L5.64,25.62 L3.28,27 C2.4968432,27.3745429 1.55736041,27.0824167 1.12468134,26.3298173 C0.692002274,25.577218 0.912265845,24.6183387 1.63,24.13 L4,22.76 L1.48,22.09 C0.874554342,21.9671489 0.387415791,21.5182432 0.215597311,20.9248333 C0.0437788304,20.3314235 0.215707601,19.6916885 0.661850639,19.2643558 C1.10799368,18.8370231 1.7545371,18.6927944 2.34,18.89 L8,20.42 L22.41,12.1 L24,6.39 C24.1228511,5.78455434 24.5717568,5.29741579 25.1651667,5.12559731 C25.7585765,4.95377883 26.3983115,5.1257076 26.8256442,5.57185064 C27.2529769,6.01799368 27.3972056,6.6645371 27.2,7.25 L26.52,9.76 L28.89,8.4 C29.6797672,7.94436519 30.689365,8.21523294 31.1449999,9.00500008 C31.6006347,9.79476722 31.3297671,10.804365 30.54,11.26 L28.18,12.63 L30.69,13.3 C31.1088613,13.420679 31.4662797,13.6958911 31.69,14.07 C32.0214805,14.6499972 31.9729891,15.3721861 31.5669457,15.9026621 C31.1609023,16.4331382 30.4764319,16.6685284 29.83,16.5 L24.1,15 Z" id="Path" fill="url(#linearGradient-3)"></path>
                </g>
            </g>
            <g id="Group" opacity="0.9" transform="translate(75.000000, 60.000000)">
                <g id="snow-header-1">
                    <path d="M38.62,21.89 L13.89,21.89 L7.68,15.68 C7.07101783,15.0079841 6.14168659,14.7255337 5.26174999,14.9450247 C4.38181339,15.1645157 3.69400904,15.8503436 3.47198676,16.729645 C3.24996449,17.6089463 3.5297393,18.5390865 4.2,19.15 L6.94,21.89 L2.88,21.89 C1.52137952,21.89 0.42,22.9913795 0.42,24.35 C0.42,25.7086205 1.52137952,26.81 2.88,26.81 L6.94,26.81 L4.2,29.55 C3.5297393,30.1609135 3.24996449,31.0910537 3.47198676,31.970355 C3.69400904,32.8496564 4.38181339,33.5354843 5.26174999,33.7549753 C6.14168659,33.9744663 7.07101783,33.6920159 7.68,33.02 L13.89,26.81 L38.62,26.81 L44.83,33.02 C45.8003918,33.90447 47.2943463,33.870962 48.2241066,32.9438734 C49.1538669,32.0167849 49.1916738,30.522933 48.31,29.55 L45.57,26.81 L49.63,26.81 C50.9886205,26.81 52.09,25.7086205 52.09,24.35 C52.09,22.9913795 50.9886205,21.89 49.63,21.89 L45.57,21.89 L48.31,19.15 C49.1916738,18.177067 49.1538669,16.6832151 48.2241066,15.7561266 C47.2943463,14.829038 45.8003918,14.79553 44.83,15.68 L38.62,21.89 Z" id="Path" fill="url(#linearGradient-4)"></path>
                    <path d="M30.31,12.41 L18,33.83 L9.51,36.1 C8.63289608,36.3011754 7.93563147,36.9652116 7.69190201,37.8314556 C7.44817256,38.6976997 7.69687801,39.6278973 8.34039454,40.2569198 C8.98391106,40.8859423 9.919532,41.1133964 10.78,40.85 L14.52,39.85 L12.52,43.36 C12.0622295,44.1220653 12.0512269,45.0718231 12.4912204,45.8442886 C12.9312139,46.6167542 13.7537427,47.0917356 14.6427151,47.0867011 C15.5316875,47.0816666 16.3487838,46.5973995 16.78,45.82 L18.78,42.31 L19.78,46.05 C19.9811754,46.9271039 20.6452116,47.6243685 21.5114556,47.868098 C22.3776997,48.1118274 23.3078973,47.863122 23.9369198,47.2196055 C24.5659423,46.5760889 24.7933964,45.640468 24.53,44.78 L22.25,36.29 L34.62,14.87 L43.11,12.6 C44.402445,12.230736 45.1592063,10.8924397 44.8094661,9.59457546 C44.4597258,8.2967112 43.1329886,7.51986292 41.83,7.85 L38.09,8.85 L40.09,5.34 C40.7409961,4.16637982 40.3311848,2.68756378 39.1689666,2.01642368 C38.0067484,1.34528358 36.5210845,1.72952946 35.83,2.88 L33.83,6.39 L32.83,2.65 C32.663756,2.02125422 32.2533854,1.48489259 31.69,1.16 C30.8264376,0.605802099 29.7095895,0.645824601 28.8879109,1.26041349 C28.0662323,1.87500238 27.7123315,2.93505224 28,3.92 L30.31,12.41 Z" id="Path" fill="url(#linearGradient-5)"></path>
                    <path d="M30.31,36.29 L18,14.87 L9.51,12.6 C8.63289608,12.3988246 7.93563147,11.7347884 7.69190201,10.8685444 C7.44817256,10.0023003 7.69687801,9.07210272 8.34039454,8.4430802 C8.98391106,7.81405767 9.919532,7.58660358 10.78,7.85 L14.52,8.85 L12.52,5.34 C11.8690039,4.16637982 12.2788152,2.68756378 13.4410334,2.01642368 C14.6032516,1.34528358 16.0889155,1.72952946 16.78,2.88 L18.78,6.39 L19.78,2.65 C19.9811754,1.77289608 20.6452116,1.07563147 21.5114556,0.831902014 C22.3776997,0.588172557 23.3078973,0.836878009 23.9369198,1.48039454 C24.5659423,2.12391106 24.7933964,3.059532 24.53,3.92 L22.25,12.41 L34.62,33.83 L43.11,36.1 C44.402445,36.469264 45.1592063,37.8075603 44.8094661,39.1054245 C44.4597258,40.4032888 43.1329886,41.1801371 41.83,40.85 L38.09,39.85 L40.09,43.36 C40.7409961,44.5336202 40.3311848,46.0124362 39.1689666,46.6835763 C38.0067484,47.3547164 36.5210845,46.9704705 35.83,45.82 L33.83,42.31 L32.83,46.05 C32.663756,46.6787458 32.2533854,47.2151074 31.69,47.54 C30.8293884,48.0381011 29.7535401,47.9691112 28.9635983,47.3651668 C28.1736564,46.7612223 27.8249853,45.7411059 28.08,44.78 L30.31,36.29 Z" id="Path" fill="url(#linearGradient-6)"></path>
                </g>
            </g>
            <g id="snow-contain-4">
                <path d="M111.62,33.13 L109.62,33.13 L110.62,31.4 C111.033164,30.6880682 111.146222,29.8410454 110.934248,29.0456722 C110.722273,28.250299 110.202672,27.5718857 109.49,27.16 L109.49,27.16 C108.778068,26.7468357 107.931045,26.633778 107.135672,26.8457525 C106.340299,27.0577269 105.661886,27.5773277 105.25,28.29 L104.25,30.03 L103.25,28.29 C102.35511,26.8853876 100.512536,26.4350637 99.0706509,27.2685697 C97.6287659,28.1020756 97.099428,29.9235234 97.87,31.4 L98.87,33.13 L96.87,33.13 C95.1579173,33.13 93.7699838,34.5179173 93.7699838,36.23 L93.7699838,36.23 C93.7673422,37.0539024 94.0927748,37.844971 94.6744259,38.4284983 C95.2560769,39.0120257 96.0460933,39.3400043 96.87,39.34 L98.87,39.34 L97.87,41.07 C97.0139586,42.555646 97.524354,44.4539586 99.01,45.31 C100.495646,46.1660414 102.393959,45.655646 103.25,44.17 L104.25,42.44 L105.25,44.17 C105.803762,45.1292582 106.827217,45.720221 107.934839,45.7202784 C109.042462,45.7203358 110.065978,45.1294791 110.61984,44.1702783 C111.173701,43.2110775 111.173762,42.0292581 110.62,41.07 L109.62,39.34 L111.62,39.34 C112.771358,39.4053664 113.864363,38.8282677 114.459745,37.8406344 C115.055126,36.8530011 115.055126,35.6169989 114.459745,34.6293656 C113.864363,33.6417323 112.771358,33.0646336 111.62,33.13 L111.62,33.13 Z" id="snow-header-4" fill="url(#linearGradient-7)"></path>
            </g>
            <g id="snow-contain-3">
                <path d="M32.36,91.39 L31.25,92.03 L31.25,90.75 C31.25,89.6454305 30.3545695,88.75 29.25,88.75 L29.25,88.75 C28.1454305,88.75 27.25,89.6454305 27.25,90.75 L27.25,92 L26.14,91.36 C25.2054167,90.9376208 24.1027974,91.2906376 23.5873112,92.1772739 C23.0718249,93.0639103 23.3105557,94.1967818 24.14,94.8 L25.24,95.44 L24.14,96.08 C23.197292,96.6322966 22.8722628,97.8389119 23.41,98.79 L23.41,98.79 C23.9622966,99.732708 25.1689119,100.057737 26.12,99.52 L27.23,98.88 L27.23,100.16 C27.23,101.264569 28.1254305,102.16 29.23,102.16 C30.3345695,102.16 31.23,101.264569 31.23,100.16 L31.23,98.88 L32.34,99.52 C33.2745833,99.9423792 34.3772026,99.5893624 34.8926888,98.7027261 C35.4081751,97.8160897 35.1694443,96.6832182 34.34,96.08 L33.23,95.44 L34.34,94.8 C35.0356743,94.4855943 35.4916824,93.8025785 35.5153631,93.0395235 C35.5390439,92.2764686 35.1262661,91.5664908 34.4514264,91.2095523 C33.7765867,90.8526139 32.9574121,90.9109834 32.34,91.36 L32.36,91.39 Z" id="snow-header-3" fill="url(#linearGradient-8)" opacity="0.8"></path>
            </g>
            <path d="M70.59,43.93 L57,47.56 L55.22,46.56 L50.09,41.2 L56.09,35.2 L57.02,34.67 L70.57,38.3 C71.9306798,38.6768833 73.3889093,38.2929115 74.3875319,37.2947916 C75.3861546,36.2966717 75.7708606,34.8386357 75.3946626,33.4777663 C75.0184646,32.1168969 73.9394936,31.0634791 72.57,30.72 L66.57,29.12 L72.18,25.88 C73.4089936,25.1940501 74.1786806,23.9045459 74.1991274,22.4972312 C74.2195741,21.0899166 73.4876743,19.778596 72.2791274,19.0572312 C71.0705805,18.3358665 69.5689936,18.3140501 68.34,19 L62.73,22.24 L64.33,16.24 C64.7068833,14.8793202 64.3229115,13.4210907 63.3247916,12.4224681 C62.3266717,11.4238454 60.8686357,11.0391394 59.5077663,11.4153374 C58.1468969,11.7915354 57.0934791,12.8705064 56.75,14.24 L53.12,27.83 L51.34,28.83 L44,30.7 L41.92,23.42 L41.92,21.36 L51.84,11.44 C52.831412,10.448588 53.2186025,9.0035735 52.8557205,7.6492795 C52.4928385,6.29498551 51.4350145,5.23716149 50.0807205,4.8742795 C48.7264265,4.51139752 47.281412,4.89858799 46.29,5.89 L41.92,10.26 L41.92,3.78 C41.814433,1.68921267 40.0884508,0.0481792118 37.995,0.0481792118 C35.9015492,0.0481792118 34.175567,1.68921267 34.07,3.78 L34.07,10.26 L29.7,5.89 C28.708588,4.89858799 27.2635735,4.51139752 25.9092795,4.8742795 C24.5549855,5.23716149 23.4971615,6.29498551 23.1342795,7.6492795 C22.7713975,9.0035735 23.158588,10.448588 24.15,11.44 L34.07,21.36 L34.07,22.44 L31.85,30.67 L24.65,28.86 L22.87,27.86 L19.23,14.28 C18.8865209,12.9105064 17.8331031,11.8315354 16.4722337,11.4553374 C15.1113643,11.0791394 13.6533283,11.4638454 12.6552084,12.4624681 C11.6570885,13.4610907 11.2731167,14.9193202 11.65,16.28 L13.25,22.28 L7.64,19 C5.77267296,18.0162374 3.46172727,18.6831055 2.4056096,20.5104847 C1.34949194,22.3378638 1.92537091,24.6731468 3.71,25.8 L9.32,29.04 L3.32,30.64 C1.25162509,31.2129018 0.0285337975,33.3426105 0.576087661,35.4178397 C1.12364152,37.4930688 3.23822725,38.742124 5.32,38.22 L18.87,34.59 L19.81,35.12 L25.81,41.12 L20.64,46.46 L18.86,47.46 L5.38,43.93 C3.29822725,43.407876 1.18364152,44.6569312 0.636087661,46.7321603 C0.0885337975,48.8073895 1.31162509,50.9370982 3.38,51.51 L9.38,53.11 L3.77,56.35 C1.98537091,57.4768532 1.40949194,59.8121362 2.4656096,61.6395153 C3.52172727,63.4668945 5.83267296,64.1337626 7.7,63.15 L13.31,59.91 L11.71,65.91 C11.3331167,67.2706798 11.7170885,68.7289093 12.7152084,69.7275319 C13.7133283,70.7261546 15.1713643,71.1108606 16.5322337,70.7346626 C17.8931031,70.3584646 18.9465209,69.2794936 19.29,67.91 L22.92,54.36 L23.85,53.82 L31.94,51.67 L34.12,59.75 L34.12,60.83 L24.2,70.75 C23.0822555,71.8749332 22.7501334,73.5614203 23.3578906,75.0261588 C23.9656478,76.4908973 25.3941823,77.4468433 26.98,77.45 C28.0201542,77.4534575 29.0181406,77.039131 29.75,76.3 L34.12,71.93 L34.12,78.41 C34.225567,80.5007873 35.9515492,82.1418208 38.045,82.1418208 C40.1384508,82.1418208 41.864433,80.5007873 41.97,78.41 L41.97,71.93 L46.34,76.3 C47.331412,77.291412 48.7764265,77.6786025 50.1307205,77.3157205 C51.4850145,76.9528385 52.5428385,75.8950145 52.9057205,74.5407205 C53.2686025,73.1864265 52.881412,71.741412 51.89,70.75 L41.97,60.83 L41.97,58.77 L43.97,51.63 L52.21,53.82 L53.14,54.36 L56.77,67.91 C57.1134791,69.2794936 58.1668969,70.3584646 59.5277663,70.7346626 C60.8886357,71.1108606 62.3466717,70.7261546 63.3447916,69.7275319 C64.3429115,68.7289093 64.7268833,67.2706798 64.35,65.91 L62.75,59.91 L68.36,63.15 C69.574703,63.8502406 71.0707088,63.8492532 72.2844864,63.1474098 C73.498264,62.4455664 74.2454118,61.1494937 74.2444864,59.7474098 C74.243561,58.3453259 73.494703,57.0502406 72.28,56.35 L66.67,53.11 L72.67,51.51 C74.0394936,51.1665209 75.1184646,50.1131031 75.4946626,48.7522337 C75.8708606,47.3913643 75.4861546,45.9333283 74.4875319,44.9352084 C73.4889093,43.9370885 72.0306798,43.5531167 70.67,43.93 L70.59,43.93 Z M34.81,44.28 L34.81,44.28 C33.9642376,43.435842 33.4889582,42.2899547 33.4889582,41.095 C33.4889582,39.9000453 33.9642376,38.754158 34.81,37.91 L34.81,37.91 C36.5691739,36.1607701 39.4108261,36.1607701 41.17,37.91 L41.17,37.91 C42.0157624,38.754158 42.4910418,39.9000453 42.4910418,41.095 C42.4910418,42.2899547 42.0157624,43.435842 41.17,44.28 L41.17,44.28 C39.4108261,46.0292299 36.5691739,46.0292299 34.81,44.28 Z" id="snow-header-0" fill="url(#linearGradient-9)"></path>
        </g>
    </g>
</svg>
